<svg width="283" height="34" viewBox="0 0 283 34" fill="none" xmlns="http://www.w3.org/2000/svg">
<path d="M18.1912 27.4161L0 19.4258V17.1774L18.1912 8.10938V11.7329L4.54316 18.1251L18.1912 23.7554V27.4161Z" fill="#003750"/>
<path d="M98.8088 8.17765L117 16.1679L117 18.4163L98.8088 27.4844L98.8088 23.8609L112.457 17.4687L98.8088 11.8383L98.8088 8.17765Z" fill="#003750"/>
<path d="M66.693 11.8425C66.7557 11.9899 66.7269 12.2742 66.622 12.4274L66.2044 13.1202C66.1304 13.2616 65.8936 13.4196 65.7342 13.4336L63.3688 13.6388C62.8618 13.6833 62.3994 14.0922 62.2902 14.615L62.0704 16.0787C62.0264 16.5645 62.3624 17.117 62.8169 17.3038L65.0169 18.1964C65.1551 18.252 65.3389 18.4544 65.3802 18.6606L65.5761 19.4439C65.6236 19.596 65.5682 19.8756 65.4648 19.998L63.9377 21.813C63.614 22.1978 63.5679 22.8118 63.829 23.2422C63.829 23.2422 63.989 23.5062 64.263 23.8766C64.537 24.2469 64.7427 24.4773 64.7432 24.478C64.9183 24.6643 65.1453 24.794 65.3948 24.8504C65.6444 24.9068 65.9051 24.8873 66.1434 24.7945L68.3318 23.8733C68.4788 23.8113 68.7631 23.8395 68.9166 23.9443L69.611 24.3615C69.7416 24.4293 69.9127 24.6829 69.9253 24.831L70.1322 27.1919C70.1504 27.3997 70.2305 27.6048 70.3649 27.7864C70.5467 28.0321 70.809 28.2064 71.1102 28.2695L72.5769 28.4897C72.8334 28.5069 73.089 28.4447 73.3086 28.3114C73.5282 28.1782 73.7012 27.9805 73.8039 27.7453L74.697 25.5501C74.7573 25.4022 74.9784 25.2228 75.1619 25.1878L75.9466 24.9926C76.0989 24.9453 76.3791 25.0008 76.5018 25.1041L78.3212 26.6293C78.5218 26.788 78.7654 26.8833 79.0206 26.9028C79.2758 26.9222 79.5309 26.8651 79.7532 26.7386C79.7532 26.7386 80.0176 26.579 80.3885 26.3057C80.7595 26.0325 80.9901 25.8273 80.9908 25.8268C81.1773 25.652 81.3072 25.4255 81.3636 25.1764C81.4201 24.9273 81.4007 24.6671 81.3079 24.429L80.3828 22.246C80.32 22.0986 80.3489 21.8144 80.4538 21.6612L80.8714 20.9684C80.9453 20.827 81.1822 20.6689 81.3416 20.655L83.7069 20.4497C84.214 20.4052 84.6764 19.9963 84.7856 19.4735L85.0053 18.0098C85.0495 17.5228 84.713 16.9696 84.2588 16.7847L82.0588 15.8921C81.9214 15.836 81.7356 15.6339 81.6956 15.4279L81.4996 14.6446C81.4521 14.4925 81.5081 14.2136 81.6115 14.0912L83.1381 12.2755C83.297 12.0754 83.3923 11.8323 83.4117 11.5776C83.4311 11.3229 83.3736 11.0682 83.2468 10.8463C83.245 10.8454 83.085 10.5814 82.811 10.2111C82.537 9.84071 82.3313 9.61038 82.3308 9.60967C82.1555 9.42344 81.9285 9.29373 81.6789 9.2372C81.4293 9.18067 81.1685 9.19991 80.9301 9.29244L78.7442 10.2139C78.5965 10.2765 78.3117 10.2476 78.1581 10.1428L77.4637 9.72559C77.3326 9.65711 77.1628 9.4037 77.1495 9.25613L76.943 6.89594C76.8992 6.4077 76.4884 5.92686 75.965 5.81831L74.4983 5.59812C74.2418 5.58088 73.9863 5.64314 73.7667 5.77637C73.547 5.90961 73.3741 6.10733 73.2713 6.34248L72.3782 8.53775C72.3179 8.68563 72.0968 8.865 71.9134 8.90003L71.1287 9.09517C70.9763 9.14249 70.6961 9.08701 70.5734 8.98372L68.754 7.45853C68.5535 7.29978 68.3099 7.20453 68.0547 7.18506C67.7995 7.16558 67.5443 7.22276 67.322 7.34925C67.3231 7.35067 67.0587 7.51023 66.6878 7.7835C66.3168 8.05676 66.0862 8.2619 66.0855 8.26243C65.899 8.43723 65.7692 8.66373 65.7127 8.91281C65.6562 9.16189 65.6756 9.42219 65.7684 9.66026L66.693 11.8425Z" fill="#EA4916"/>
<path d="M69.6141 19.9318C71.2122 22.092 74.2719 22.5527 76.4354 20.9589C78.5989 19.365 79.0588 16.3115 77.4606 14.1512C75.8624 11.991 72.8027 11.5303 70.6392 13.1242C68.4757 14.718 68.0159 17.7716 69.6141 19.9318ZM76.7473 14.6767C78.0546 16.4438 77.6782 18.9428 75.9085 20.2466C74.1388 21.5504 71.6347 21.1734 70.3274 19.4063C69.0201 17.6392 69.3964 15.1402 71.1662 13.8364C72.9359 12.5326 75.44 12.9097 76.7473 14.6767Z" fill="#FCFCFC"/>
<path d="M45.6633 11.187C45.7111 11.34 45.6542 11.6199 45.5346 11.7619L45.0501 12.4098C44.9625 12.5432 44.711 12.6769 44.5511 12.6749L42.177 12.6441C41.668 12.638 41.1673 12.9989 41.0066 13.5083L40.6423 14.9429C40.5502 15.4219 40.8296 16.005 41.2633 16.2361L43.3636 17.3429C43.4955 17.4119 43.6583 17.6316 43.6789 17.8409L43.796 18.6398C43.8281 18.7958 43.7451 19.0685 43.63 19.1801L41.93 20.8343C41.5696 21.185 41.4626 21.7913 41.6796 22.2456C41.6796 22.2456 41.8126 22.5242 42.0484 22.9199C42.2842 23.3157 42.466 23.5653 42.4664 23.5661C42.6221 23.7688 42.835 23.9205 43.0778 24.0014C43.3205 24.0824 43.5818 24.0889 43.8282 24.0202L46.0974 23.3211C46.2498 23.2739 46.5299 23.3303 46.6722 23.4498L47.3217 23.9339C47.4449 24.0143 47.5899 24.2837 47.5877 24.4323L47.5588 26.8021C47.5562 27.0106 47.6155 27.2227 47.7312 27.4167C47.8876 27.6793 48.1313 27.8788 48.4248 27.9715L49.8623 28.3364C50.1158 28.379 50.3763 28.3425 50.6081 28.2317C50.8399 28.121 51.0317 27.9414 51.1572 27.7176L52.2643 25.622C52.339 25.4809 52.5769 25.3244 52.7629 25.3077L53.5631 25.1915C53.7194 25.1596 53.9927 25.2427 54.1046 25.3576L55.7632 27.056C55.947 27.234 56.1799 27.3529 56.4319 27.3977C56.6839 27.4424 56.9435 27.4109 57.1773 27.3071C57.1773 27.3071 57.4562 27.1746 57.8525 26.9396C58.2488 26.7045 58.4987 26.5233 58.4994 26.5229C58.7024 26.3674 58.8541 26.155 58.9351 25.9127C59.0161 25.6705 59.0227 25.4096 58.954 25.1635L58.2506 22.8994C58.2028 22.7465 58.2598 22.4665 58.3794 22.3245L58.8639 21.6766C58.9515 21.5433 59.2029 21.4096 59.3629 21.4115L61.737 21.4423C62.246 21.4484 62.7467 21.0875 62.9073 20.5782L63.2716 19.1436C63.364 18.6633 63.0842 18.0794 62.6507 17.8504L60.5504 16.7436C60.4192 16.6741 60.2544 16.4546 60.2351 16.2456L60.118 15.4467C60.0859 15.2906 60.1693 15.0187 60.2844 14.9072L61.984 13.2522C62.1621 13.0688 62.2811 12.8365 62.3257 12.5849C62.3703 12.3334 62.3385 12.0743 62.2343 11.8408C62.2327 11.8398 62.0997 11.5612 61.8639 11.1655C61.6281 10.7697 61.4463 10.5201 61.4459 10.5193C61.29 10.3166 61.077 10.165 60.8343 10.0839C60.5916 10.0029 60.3302 9.99609 60.0837 10.0645L57.8169 10.7642C57.6637 10.8118 57.3832 10.7546 57.2408 10.6351L56.5914 10.151C56.4677 10.0698 56.3239 9.80078 56.3254 9.65262L56.3547 7.28363C56.3597 6.79346 55.9987 6.27417 55.4888 6.11416L54.0512 5.7493C53.7977 5.70666 53.5372 5.74321 53.3055 5.85396C53.0737 5.96471 52.8819 6.14426 52.7563 6.36804L51.6492 8.46366C51.5745 8.60481 51.3367 8.76132 51.1506 8.77795L50.3504 8.89414C50.1941 8.92608 49.9208 8.84303 49.809 8.72807L48.1503 7.02964C47.9665 6.85174 47.7336 6.73276 47.4816 6.68802C47.2296 6.64328 46.97 6.67482 46.7363 6.77859C46.7372 6.78011 46.4582 6.91261 46.0619 7.14765C45.6657 7.3827 45.4157 7.5639 45.415 7.56436C45.212 7.71976 45.0603 7.93223 44.9793 8.17446C44.8983 8.41669 44.8918 8.67763 44.9605 8.92374L45.6633 11.187Z" fill="#EA4916"/>
<path d="M47.7598 19.5284C49.1352 21.8368 52.1339 22.5992 54.4453 21.2283C56.7566 19.8573 57.5179 16.8646 56.1425 14.5563C54.7672 12.2479 51.7684 11.4855 49.4571 12.8564C47.1458 14.2274 46.3845 17.2201 47.7598 19.5284ZM55.3805 15.0083C56.5055 16.8965 55.8825 19.3457 53.9918 20.4672C52.1011 21.5886 49.647 20.9646 48.5219 19.0764C47.3968 17.1882 48.0199 14.739 49.9106 13.6175C51.8012 12.4961 54.2554 13.1201 55.3805 15.0083Z" fill="#FCFCFC"/>
<path d="M34.3044 23.3277V4.85518H25.0681V9.4733H29.6863V23.3277H25.0681V27.9458H38.9225V23.3277H34.3044Z" fill="#EA4916"/>
<path d="M95.3111 5.94946L89.7199 29.2615H86.8828L92.4741 5.94946H95.3111Z" fill="#003750"/>
<path d="M134.928 21.7558H128.256L127.152 24.9478H123.624L129.648 8.17175H133.56L139.584 24.9478H136.032L134.928 21.7558ZM134.016 19.0678L131.592 12.0598L129.168 19.0678H134.016ZM154.388 11.6518V24.9478H151.004V23.2678C150.572 23.8438 150.004 24.2998 149.3 24.6358C148.612 24.9558 147.86 25.1158 147.044 25.1158C146.004 25.1158 145.084 24.8998 144.284 24.4678C143.484 24.0198 142.852 23.3718 142.388 22.5238C141.94 21.6598 141.716 20.6358 141.716 19.4518V11.6518H145.076V18.9718C145.076 20.0278 145.34 20.8438 145.868 21.4198C146.396 21.9798 147.116 22.2598 148.028 22.2598C148.956 22.2598 149.684 21.9798 150.212 21.4198C150.74 20.8438 151.004 20.0278 151.004 18.9718V11.6518H154.388ZM161.615 14.4118V20.8438C161.615 21.2918 161.719 21.6198 161.927 21.8278C162.151 22.0198 162.519 22.1158 163.031 22.1158H164.591V24.9478H162.479C159.647 24.9478 158.231 23.5718 158.231 20.8198V14.4118H156.647V11.6518H158.231V8.36375H161.615V11.6518H164.591V14.4118H161.615ZM172.912 25.1638C171.632 25.1638 170.48 24.8838 169.456 24.3238C168.432 23.7478 167.624 22.9398 167.032 21.8998C166.456 20.8598 166.168 19.6598 166.168 18.2998C166.168 16.9398 166.464 15.7398 167.056 14.6998C167.664 13.6598 168.488 12.8598 169.528 12.2998C170.568 11.7238 171.728 11.4358 173.008 11.4358C174.288 11.4358 175.448 11.7238 176.488 12.2998C177.528 12.8598 178.344 13.6598 178.936 14.6998C179.544 15.7398 179.848 16.9398 179.848 18.2998C179.848 19.6598 179.536 20.8598 178.912 21.8998C178.304 22.9398 177.472 23.7478 176.416 24.3238C175.376 24.8838 174.208 25.1638 172.912 25.1638ZM172.912 22.2358C173.52 22.2358 174.088 22.0918 174.616 21.8038C175.16 21.4998 175.592 21.0518 175.912 20.4598C176.232 19.8678 176.392 19.1478 176.392 18.2998C176.392 17.0358 176.056 16.0678 175.384 15.3958C174.728 14.7078 173.92 14.3638 172.96 14.3638C172 14.3638 171.192 14.7078 170.536 15.3958C169.896 16.0678 169.576 17.0358 169.576 18.2998C169.576 19.5638 169.888 20.5398 170.512 21.2278C171.152 21.8998 171.952 22.2358 172.912 22.2358ZM198.824 11.4598C200.456 11.4598 201.768 11.9638 202.76 12.9718C203.768 13.9638 204.272 15.3558 204.272 17.1478V24.9478H200.912V17.6038C200.912 16.5638 200.648 15.7718 200.12 15.2278C199.592 14.6678 198.872 14.3878 197.96 14.3878C197.048 14.3878 196.32 14.6678 195.776 15.2278C195.248 15.7718 194.984 16.5638 194.984 17.6038V24.9478H191.624V17.6038C191.624 16.5638 191.36 15.7718 190.832 15.2278C190.304 14.6678 189.584 14.3878 188.672 14.3878C187.744 14.3878 187.008 14.6678 186.464 15.2278C185.936 15.7718 185.672 16.5638 185.672 17.6038V24.9478H182.312V11.6518H185.672V13.2598C186.104 12.6998 186.656 12.2598 187.328 11.9398C188.016 11.6198 188.768 11.4598 189.584 11.4598C190.624 11.4598 191.552 11.6838 192.368 12.1318C193.184 12.5638 193.816 13.1878 194.264 14.0038C194.696 13.2358 195.32 12.6198 196.136 12.1558C196.968 11.6918 197.864 11.4598 198.824 11.4598ZM206.597 18.2518C206.597 16.9078 206.861 15.7158 207.389 14.6758C207.933 13.6358 208.661 12.8358 209.573 12.2758C210.501 11.7158 211.533 11.4358 212.669 11.4358C213.661 11.4358 214.525 11.6358 215.261 12.0358C216.013 12.4358 216.613 12.9398 217.061 13.5478V11.6518H220.445V24.9478H217.061V23.0038C216.629 23.6278 216.029 24.1478 215.261 24.5638C214.509 24.9638 213.637 25.1638 212.645 25.1638C211.525 25.1638 210.501 24.8758 209.573 24.2998C208.661 23.7238 207.933 22.9158 207.389 21.8758C206.861 20.8198 206.597 19.6118 206.597 18.2518ZM217.061 18.2998C217.061 17.4838 216.901 16.7878 216.581 16.2118C216.261 15.6198 215.829 15.1718 215.285 14.8678C214.741 14.5478 214.157 14.3878 213.533 14.3878C212.909 14.3878 212.333 14.5398 211.805 14.8438C211.277 15.1478 210.845 15.5958 210.509 16.1878C210.189 16.7638 210.029 17.4518 210.029 18.2518C210.029 19.0518 210.189 19.7558 210.509 20.3638C210.845 20.9558 211.277 21.4118 211.805 21.7318C212.349 22.0518 212.925 22.2118 213.533 22.2118C214.157 22.2118 214.741 22.0598 215.285 21.7558C215.829 21.4358 216.261 20.9878 216.581 20.4118C216.901 19.8198 217.061 19.1158 217.061 18.2998ZM227.638 14.4118V20.8438C227.638 21.2918 227.742 21.6198 227.95 21.8278C228.174 22.0198 228.542 22.1158 229.054 22.1158H230.614V24.9478H228.502C225.67 24.9478 224.254 23.5718 224.254 20.8198V14.4118H222.67V11.6518H224.254V8.36375H227.638V11.6518H230.614V14.4118H227.638ZM234.735 10.0678C234.143 10.0678 233.647 9.88375 233.247 9.51575C232.863 9.13175 232.671 8.65975 232.671 8.09975C232.671 7.53975 232.863 7.07575 233.247 6.70775C233.647 6.32375 234.143 6.13175 234.735 6.13175C235.327 6.13175 235.815 6.32375 236.199 6.70775C236.599 7.07575 236.799 7.53975 236.799 8.09975C236.799 8.65975 236.599 9.13175 236.199 9.51575C235.815 9.88375 235.327 10.0678 234.735 10.0678ZM236.391 11.6518V24.9478H233.031V11.6518H236.391ZM245.615 25.1638C244.335 25.1638 243.183 24.8838 242.159 24.3238C241.135 23.7478 240.327 22.9398 239.735 21.8998C239.159 20.8598 238.871 19.6598 238.871 18.2998C238.871 16.9398 239.167 15.7398 239.759 14.6998C240.367 13.6598 241.191 12.8598 242.231 12.2998C243.271 11.7238 244.431 11.4358 245.711 11.4358C246.991 11.4358 248.151 11.7238 249.191 12.2998C250.231 12.8598 251.047 13.6598 251.639 14.6998C252.247 15.7398 252.551 16.9398 252.551 18.2998C252.551 19.6598 252.239 20.8598 251.615 21.8998C251.007 22.9398 250.175 23.7478 249.119 24.3238C248.079 24.8838 246.911 25.1638 245.615 25.1638ZM245.615 22.2358C246.223 22.2358 246.791 22.0918 247.319 21.8038C247.863 21.4998 248.295 21.0518 248.615 20.4598C248.935 19.8678 249.095 19.1478 249.095 18.2998C249.095 17.0358 248.759 16.0678 248.087 15.3958C247.431 14.7078 246.623 14.3638 245.663 14.3638C244.703 14.3638 243.895 14.7078 243.239 15.3958C242.599 16.0678 242.279 17.0358 242.279 18.2998C242.279 19.5638 242.591 20.5398 243.215 21.2278C243.855 21.8998 244.655 22.2358 245.615 22.2358ZM262.383 11.4598C263.967 11.4598 265.247 11.9638 266.223 12.9718C267.199 13.9638 267.687 15.3558 267.687 17.1478V24.9478H264.327V17.6038C264.327 16.5478 264.063 15.7398 263.535 15.1798C263.007 14.6038 262.287 14.3158 261.375 14.3158C260.447 14.3158 259.711 14.6038 259.167 15.1798C258.639 15.7398 258.375 16.5478 258.375 17.6038V24.9478H255.015V11.6518H258.375V13.3078C258.823 12.7318 259.391 12.2838 260.079 11.9638C260.783 11.6278 261.551 11.4598 262.383 11.4598ZM275.971 25.1638C274.883 25.1638 273.907 24.9718 273.043 24.5878C272.179 24.1878 271.491 23.6518 270.979 22.9798C270.483 22.3078 270.211 21.5638 270.163 20.7478H273.547C273.611 21.2598 273.859 21.6838 274.291 22.0198C274.739 22.3558 275.291 22.5238 275.947 22.5238C276.587 22.5238 277.083 22.3958 277.435 22.1398C277.803 21.8838 277.987 21.5558 277.987 21.1558C277.987 20.7238 277.763 20.4038 277.315 20.1958C276.883 19.9718 276.187 19.7318 275.227 19.4758C274.235 19.2358 273.419 18.9878 272.779 18.7318C272.155 18.4758 271.611 18.0838 271.147 17.5558C270.699 17.0278 270.475 16.3158 270.475 15.4198C270.475 14.6838 270.683 14.0118 271.099 13.4038C271.531 12.7958 272.139 12.3158 272.923 11.9638C273.723 11.6118 274.659 11.4358 275.731 11.4358C277.315 11.4358 278.579 11.8358 279.523 12.6358C280.467 13.4198 280.987 14.4838 281.083 15.8278H277.867C277.819 15.2998 277.595 14.8838 277.195 14.5798C276.811 14.2598 276.291 14.0998 275.635 14.0998C275.027 14.0998 274.555 14.2118 274.219 14.4358C273.899 14.6598 273.739 14.9718 273.739 15.3718C273.739 15.8198 273.963 16.1638 274.411 16.4038C274.859 16.6278 275.555 16.8598 276.499 17.0998C277.459 17.3398 278.251 17.5878 278.875 17.8438C279.499 18.0998 280.035 18.4998 280.483 19.0438C280.947 19.5718 281.187 20.2758 281.203 21.1558C281.203 21.9238 280.987 22.6118 280.555 23.2198C280.139 23.8278 279.531 24.3078 278.731 24.6598C277.947 24.9958 277.027 25.1638 275.971 25.1638Z" fill="#003750"/>
</svg>
