<svg width="800" height="601" viewBox="0 0 800 601" fill="none" xmlns="http://www.w3.org/2000/svg">
<rect y="1" width="800" height="599.506" fill="#003750"/>
<g opacity="0.6">
<g opacity="0.1">
<path opacity="0.7" d="M718.106 135.304L710.55 133.117C709.567 132.733 708.801 132.07 708.251 131.126C707.701 130.183 707.628 129.243 708.031 128.308L712.478 115.072C708.488 112.785 705.089 109.927 702.281 106.498L689.198 112.862C688.128 113.391 687.101 113.464 686.118 113.08C685.135 112.696 684.372 112.069 683.828 111.201L680.203 104.429C679.659 103.561 679.586 102.622 679.983 101.611C680.381 100.601 681.036 99.8368 681.949 99.319L695.031 92.9547C694.37 90.5833 693.963 88.4206 693.811 86.4667C693.67 84.6631 693.743 82.5421 694.029 80.1038L680.103 75.6464C679.132 75.4127 678.371 74.8241 677.821 73.8806C677.271 72.937 677.192 71.9225 677.584 70.8369L680.137 63.8559C680.37 62.7815 680.986 62.0201 681.983 61.5719C682.981 61.1237 684.044 61.0108 685.173 61.2334L698.863 65.7076C701.266 61.9108 704.264 58.601 707.856 55.7782L701.168 43.3288C700.781 42.4493 700.748 41.5071 701.066 40.5023C701.385 39.4974 702.001 38.7361 702.913 38.2183L710.047 34.9943C711.117 34.4654 712.181 34.3525 713.237 34.6558C714.292 34.9591 715.019 35.6256 715.417 36.6554L722.088 48.8794C724.58 48.2501 726.852 47.8629 728.906 47.718C730.801 47.5841 733.109 47.6479 735.829 47.9093L740.276 34.6737C740.68 33.7384 741.341 33.0495 742.259 32.6068C743.178 32.1641 744.201 32.0541 745.331 32.2766L752.904 34.689C753.886 35.073 754.65 35.6992 755.194 36.5676C755.738 37.4359 755.814 38.4129 755.423 39.4985L750.975 52.734C754.954 54.8712 758.347 57.6542 761.155 61.0831L774.256 54.9443C775.326 54.4153 776.35 54.3052 777.327 54.6141C778.304 54.9229 779.07 55.5867 779.626 56.6054L783.251 63.377C783.795 64.2453 783.868 65.1847 783.471 66.1951C783.073 67.2056 782.418 67.9697 781.505 68.4875L768.405 74.6263C769.066 76.9977 769.473 79.1604 769.626 81.1143C769.778 83.0682 769.711 85.2643 769.424 87.7026L783.333 91.9346C784.474 92.3075 785.28 92.9685 785.751 93.9176C786.222 94.8666 786.256 95.8088 785.852 96.7441L783.317 103.951C783.083 105.025 782.468 105.786 781.47 106.235C780.473 106.683 779.483 106.715 778.5 106.331L764.591 102.099C762.187 105.896 759.19 109.206 755.598 112.028L762.269 124.252C762.666 125.282 762.706 126.299 762.387 127.304C762.069 128.309 761.447 128.995 760.523 129.363L753.407 132.812C752.336 133.341 751.273 133.454 750.217 133.151C749.161 132.847 748.434 132.181 748.036 131.151L741.348 118.702C738.856 119.331 736.584 119.718 734.53 119.863C732.477 120.008 730.169 119.944 727.607 119.672L723.16 132.907C722.768 133.993 722.113 134.757 721.194 135.2C720.276 135.642 719.246 135.677 718.106 135.304ZM754.471 82.2975C754.008 76.3606 751.399 71.4064 746.642 67.435C741.886 63.4636 736.349 61.7009 730.031 62.147C723.713 62.593 718.51 65.1139 714.421 69.7098C710.332 74.3056 708.52 79.572 708.982 85.509C709.445 91.4459 712.052 96.3625 716.803 100.259C721.553 104.155 727.088 105.88 733.405 105.434C739.723 104.988 744.93 102.505 749.024 97.9839C753.118 93.4633 754.934 88.2344 754.471 82.2975Z" fill="white"/>
<path opacity="0.4" d="M647.184 270.662C644.365 271.163 641.849 271.492 639.638 271.648C637.427 271.804 634.888 271.832 632.021 271.732L630.896 257.303C627.071 257.12 623.227 256.711 619.366 256.077L614.48 269.797C609.794 268.768 604.994 267.293 600.08 265.373L604.948 251.427C601.502 250.008 598.106 248.208 594.76 246.026L584.889 256.924C580.706 254.197 576.889 251.066 573.437 247.531L583.307 236.633C580.546 233.806 578.173 230.875 576.19 227.841L562.651 234.464C559.772 230.134 557.452 225.839 555.691 221.581L569.23 214.958C568.001 211.417 567.009 207.86 566.254 204.286L551.091 205.357C550.564 202.674 550.219 200.28 550.055 198.176C549.89 196.072 549.861 193.656 549.966 190.928L565.129 189.857C565.322 186.217 565.751 182.559 566.417 178.885L552.017 174.461C553.087 169.852 554.71 165.203 556.886 160.516L571.303 165.165C572.795 161.886 574.693 158.73 576.997 155.695L565.527 146.077C568.393 142.097 571.683 138.464 575.398 135.179L586.85 144.572C589.833 142.094 592.913 139.837 596.089 137.799L589.129 124.915C593.68 122.176 598.193 119.968 602.668 118.292L609.646 131.401C613.355 130.081 617.087 129.062 620.842 128.344L619.717 113.915C622.537 113.413 625.052 113.085 627.264 112.929C629.475 112.773 632.014 112.744 634.88 112.844L636.005 127.273C639.831 127.457 643.68 127.94 647.553 128.725L652.422 114.78C657.108 115.809 661.914 117.359 666.839 119.429L661.953 133.149C665.411 134.718 668.807 136.519 672.142 138.55L682.012 127.652C686.195 130.38 690.013 133.511 693.465 137.045L683.612 148.169C686.362 150.846 688.728 153.701 690.712 156.735L704.488 150.095C707.208 154.437 709.455 158.812 711.228 163.221L697.672 169.619C699.059 173.148 700.051 176.705 700.648 180.29L715.811 179.22C716.338 181.903 716.683 184.296 716.847 186.401C717.011 188.505 717.041 190.921 716.936 193.649L701.773 194.719C701.738 198.349 701.309 202.006 700.484 205.691L714.902 210.341C713.82 214.8 712.271 219.368 710.253 224.044L695.598 219.411C693.949 222.701 692.057 225.933 689.922 229.106L701.374 238.499C698.508 242.48 695.218 246.112 691.504 249.397L680.052 240.005C677.08 242.632 674 244.89 670.812 246.778L677.79 259.887C673.227 262.476 668.709 264.608 664.234 266.284L657.273 253.401C653.553 254.57 649.815 255.514 646.059 256.233L647.184 270.662ZM671.358 189.612C670.585 179.692 666.211 171.462 658.237 164.922C650.262 158.382 641.063 155.48 630.638 156.216C620.214 156.952 611.565 161.114 604.693 168.702C597.82 176.29 594.77 185.044 595.543 194.964C596.317 204.884 600.691 213.114 608.665 219.655C616.639 226.195 625.839 229.097 636.263 228.361C646.688 227.625 655.336 223.463 662.209 215.874C669.082 208.286 672.132 199.532 671.358 189.612Z" fill="white"/>
<path opacity="0.2" d="M580.551 62.3018L578.581 59.1435C578.359 58.6967 578.312 58.2169 578.441 57.7039C578.569 57.1909 578.868 56.8289 579.337 56.6179L585.525 53.2357C584.877 51.159 584.64 49.0617 584.814 46.9436L577.889 45.1384C577.319 44.9936 576.924 44.6979 576.702 44.2511C576.48 43.8044 576.421 43.339 576.526 42.855L577.562 39.2745C577.667 38.7905 577.965 38.4285 578.459 38.1885C578.952 37.9485 579.453 37.8782 579.962 37.9774L586.887 39.7827C587.47 38.7195 588.072 37.8114 588.693 37.0585C589.267 36.3634 590.028 35.6208 590.975 34.8306L587.493 28.8553C587.223 28.4664 587.152 28.0155 587.281 27.5025C587.409 26.9896 587.732 26.5986 588.249 26.3297L591.587 24.6106C592.044 24.2962 592.53 24.2145 593.045 24.3654C593.56 24.5164 593.983 24.809 594.313 25.2434L597.705 31.1505C599.887 30.534 602.115 30.2794 604.388 30.3868L606.285 23.7968C606.451 23.3582 606.765 23.0076 607.228 22.7449C607.691 22.4822 608.176 22.4005 608.685 22.4997L612.376 23.573C612.945 23.7177 613.368 24.0104 613.644 24.4509C613.92 24.8915 613.952 25.36 613.739 25.8564L611.914 32.3596C613.031 32.9138 613.985 33.4867 614.776 34.0782C615.507 34.6242 616.317 35.3709 617.209 36.3181L623.397 32.9359C623.866 32.7249 624.343 32.6835 624.828 32.8117C625.313 32.9399 625.72 33.2212 626.051 33.6555L627.949 36.9007C628.17 37.3475 628.229 37.8128 628.125 38.2969C628.02 38.7809 627.71 39.1573 627.192 39.4263L621.004 42.8085C621.7 44.8272 621.961 46.8956 621.787 49.0137L628.641 50.9058C629.21 51.0505 629.618 51.3318 629.864 51.7496C630.109 52.1674 630.156 52.6473 630.004 53.1892L628.967 56.7697C628.863 57.2537 628.564 57.6157 628.071 57.8557C627.577 58.0956 627.076 58.166 626.568 58.0667L619.714 56.1746C619.132 57.2378 618.53 58.1459 617.908 58.8988C617.287 59.6518 616.502 60.4233 615.554 61.2135L619.109 67.102C619.391 67.5943 619.453 68.0855 619.295 68.5758C619.136 69.066 618.822 69.4166 618.352 69.6276L614.942 71.4336C614.486 71.748 614 71.8297 613.485 71.6788C612.97 71.5278 612.601 71.2289 612.379 70.7822L608.825 64.8937C606.643 65.5102 604.415 65.7648 602.141 65.6574L600.316 72.1605C600.103 72.657 599.765 73.0366 599.302 73.2993C598.839 73.562 598.377 73.6148 597.916 73.4576L594.154 72.4712C593.584 72.3265 593.161 72.0338 592.885 71.5933C592.609 71.1527 592.578 70.6842 592.791 70.1878L594.688 63.5977C593.571 63.0435 592.616 62.4706 591.825 61.8791C591.034 61.2876 590.223 60.5409 589.393 59.6392L583.205 63.0214C582.687 63.2904 582.186 63.3607 581.702 63.2325C581.217 63.1043 580.833 62.7941 580.551 62.3018ZM612.029 54.5742C613.918 52.2864 614.692 49.6802 614.35 46.7555C614.009 43.8308 612.621 41.4584 610.186 39.6384C607.751 37.8184 605.001 37.0967 601.934 37.4733C598.867 37.85 596.389 39.1822 594.5 41.47C592.612 43.7578 591.85 46.3495 592.215 49.2453C592.581 52.141 593.981 54.4989 596.415 56.3189C598.85 58.1389 601.589 58.8751 604.632 58.5274C607.675 58.1797 610.141 56.862 612.029 54.5742Z" fill="white"/>
</g>
<g opacity="0.1">
<path opacity="0.8" d="M150.463 236.092L152.761 228.902C153.165 227.967 153.862 227.237 154.854 226.714C155.845 226.19 156.833 226.121 157.815 226.505L171.724 230.737C174.128 226.94 177.132 223.705 180.735 221.033L174.047 208.583C173.491 207.565 173.415 206.588 173.818 205.653C174.222 204.717 174.88 203.991 175.792 203.473L182.909 200.023C183.821 199.506 184.808 199.436 185.87 199.814C186.932 200.193 187.735 200.816 188.279 201.685L194.967 214.134C197.459 213.505 199.732 213.118 201.785 212.973C203.68 212.839 205.909 212.908 208.472 213.181L213.156 199.928C213.401 199.004 214.02 198.28 215.011 197.757C216.003 197.234 217.069 197.158 218.21 197.531L225.546 199.96C226.675 200.183 227.475 200.769 227.946 201.718C228.417 202.667 228.536 203.679 228.302 204.753L223.6 217.78C227.59 220.067 231.068 222.92 234.034 226.338L247.117 219.973C248.041 219.606 249.032 219.574 250.087 219.877C251.143 220.18 251.943 220.766 252.488 221.635L255.876 228.423C256.431 229.442 256.55 230.453 256.231 231.458C255.913 232.463 255.212 233.155 254.13 233.533L241.284 239.881C241.946 242.252 242.352 244.415 242.505 246.369C242.645 248.173 242.578 250.369 242.304 252.957L256.212 257.189C257.195 257.573 257.919 258.202 258.385 259.076C258.85 259.95 258.965 260.924 258.731 261.999L256.196 269.205C255.793 270.14 255.135 270.867 254.222 271.385C253.31 271.903 252.283 271.975 251.142 271.602L237.234 267.37C234.988 271.156 232.063 274.385 228.46 277.057L234.911 289.524C235.467 290.542 235.582 291.516 235.258 292.446C234.933 293.376 234.236 294.105 233.165 294.634L226.049 298.083C225.137 298.601 224.15 298.671 223.088 298.293C222.026 297.914 221.223 297.291 220.679 296.422L214.228 283.956C211.736 284.586 209.463 284.973 207.41 285.118C205.356 285.263 203.049 285.199 200.486 284.926L196.039 298.162C195.647 299.247 194.953 300.014 193.955 300.463C192.958 300.911 191.968 300.943 190.985 300.559L183.412 298.147C182.283 297.924 181.483 297.338 181.012 296.389C180.541 295.44 180.507 294.498 180.91 293.563L185.358 280.327C181.368 278.04 177.89 275.187 174.923 271.769L162.077 278.117C160.995 278.495 159.926 278.533 158.87 278.23C157.814 277.927 157.093 277.335 156.707 276.456L153.082 269.684C152.526 268.665 152.408 267.654 152.726 266.649C153.045 265.644 153.746 264.952 154.828 264.574L167.91 258.209C167.249 255.838 166.842 253.675 166.69 251.721C166.538 249.767 166.605 247.571 166.891 245.133L152.982 240.901C151.841 240.528 151.038 239.905 150.573 239.031C150.108 238.157 150.071 237.177 150.463 236.092ZM206.166 270.697C212.405 270.257 217.611 267.773 221.785 263.247C225.958 258.721 227.81 253.451 227.342 247.439C226.873 241.427 224.224 236.476 219.394 232.585C214.565 228.695 209.03 226.969 202.791 227.41C196.553 227.85 191.386 230.331 187.291 234.852C183.197 239.372 181.384 244.639 181.853 250.651C182.322 256.663 184.931 261.617 189.682 265.513C194.433 269.41 199.927 271.137 206.166 270.697Z" fill="white"/>
<path opacity="0.5" d="M8.2213 168.606C7.69448 165.923 7.34904 163.529 7.18499 161.425C7.02093 159.321 6.99139 156.905 7.09636 154.177L22.2593 153.107C22.4519 149.466 22.8815 145.809 23.5479 142.134L9.13012 137.485C10.2118 133.026 11.7615 128.458 13.7792 123.782L28.4339 128.415C29.9252 125.136 31.8173 121.904 34.1101 118.719L22.6577 109.327C25.5237 105.346 28.8138 101.713 32.5282 98.4286L43.9806 107.821C46.9521 105.193 50.0318 102.936 53.2198 101.048L46.2597 88.1647C50.8106 85.4253 55.3236 83.2176 59.7986 81.5415L66.7587 94.4251C70.4792 93.2556 74.2172 92.3117 77.9728 91.5931L76.8478 77.1641C79.6674 76.6628 82.1829 76.3341 84.3941 76.178C86.6054 76.0219 89.1443 75.9938 92.0108 76.0936L93.1357 90.5227C96.9616 90.7059 100.805 91.1147 104.666 91.7489L109.315 78.0457C114.159 79.0639 119.044 80.6081 123.97 82.6784L119.084 96.3983C122.53 97.8175 125.847 99.6236 129.035 101.817L139.143 90.9017C143.326 93.629 147.143 96.7599 150.595 100.294L140.725 111.193C143.328 114.031 145.701 116.962 147.842 119.984L161.381 113.361C164.26 117.692 166.58 121.986 168.341 126.245L154.565 132.885C155.952 136.414 157.023 139.966 157.778 143.539L172.941 142.469C173.468 145.152 173.814 147.546 173.978 149.65C174.142 151.754 174.171 154.17 174.066 156.898L158.903 157.968C158.711 161.609 158.202 165.272 157.378 168.957L172.032 173.59C170.951 178.049 169.322 182.623 167.146 187.31L152.729 182.661C151.079 185.951 149.187 189.182 147.052 192.356L158.505 201.748C155.639 205.729 152.349 209.362 148.634 212.647L136.945 203.271C134.132 205.887 131.131 208.139 127.943 210.027L134.92 223.136C130.358 225.725 125.76 227.863 121.127 229.55L114.404 216.65C110.695 217.97 106.957 218.914 103.19 219.482L104.315 233.911C101.495 234.412 98.9797 234.741 96.7685 234.897C94.5572 235.053 92.0183 235.081 89.1518 234.982L88.0269 220.552C84.2127 220.52 80.3692 220.111 76.4965 219.326L71.6105 233.046C66.9245 232.017 62.1245 230.542 57.2103 228.622L62.0787 214.677C58.6212 213.107 55.225 211.307 51.8903 209.275L42.0198 220.173C37.8368 217.446 34.0193 214.315 30.5674 210.781L40.4379 199.883C37.6763 197.055 35.3038 194.124 33.3203 191.091L19.5445 197.731C16.8237 193.389 14.5827 189.089 12.8213 184.83L26.3603 178.207C25.1313 174.667 24.1393 171.11 23.3843 167.536L8.2213 168.606ZM93.3936 191.61C103.818 190.874 112.467 186.712 119.34 179.124C126.212 171.535 129.262 162.781 128.489 152.861C127.715 142.941 123.341 134.711 115.367 128.171C107.393 121.631 98.1935 118.729 87.769 119.465C77.3444 120.201 68.6958 124.363 61.823 131.951C54.9502 139.54 51.9005 148.294 52.6739 158.214C53.4473 168.134 57.8211 176.364 65.7954 182.904C73.7697 189.444 82.9691 192.346 93.3936 191.61Z" fill="white"/>
<path d="M227.178 105.197L230.497 103.323C230.967 103.112 231.471 103.067 232.01 103.189C232.549 103.311 232.929 103.596 233.151 104.042L236.705 109.931C238.888 109.314 241.092 109.089 243.317 109.254L245.215 102.664C245.367 102.122 245.677 101.746 246.147 101.535C246.616 101.324 247.105 101.268 247.614 101.367L251.377 102.353C251.885 102.453 252.266 102.737 252.518 103.207C252.77 103.676 252.844 104.153 252.74 104.637L250.843 111.227C251.96 111.781 252.914 112.354 253.705 112.946C254.436 113.492 255.216 114.215 256.047 115.117L262.326 111.803C262.735 111.547 263.208 111.479 263.747 111.601C264.287 111.723 264.697 112.031 264.98 112.523L266.786 115.7C267.117 116.134 267.203 116.596 267.044 117.087C266.885 117.577 266.578 117.979 266.122 118.294L259.914 121.521C260.562 123.597 260.829 125.717 260.716 127.881L267.642 129.686C268.103 129.843 268.471 130.142 268.747 130.583C269.023 131.023 269.109 131.486 269.005 131.97L267.877 135.482C267.725 136.024 267.417 136.426 266.954 136.689C266.491 136.952 265.999 136.982 265.477 136.779L258.643 135.042C258.061 136.105 257.459 137.013 256.837 137.766C256.264 138.461 255.479 139.233 254.483 140.081L258.038 145.969C258.259 146.416 258.303 146.87 258.168 147.331C258.034 147.793 257.738 148.181 257.282 148.495L253.871 150.301C253.402 150.512 252.913 150.568 252.404 150.469C251.895 150.369 251.5 150.074 251.217 149.581L247.663 143.693C245.542 144.355 243.368 144.603 241.142 144.438L239.154 150.96C239.002 151.502 238.706 151.889 238.267 152.123C237.828 152.357 237.324 152.401 236.754 152.257L232.992 151.27C232.483 151.171 232.103 150.887 231.85 150.417C231.598 149.948 231.524 149.471 231.629 148.987L233.617 142.465C232.5 141.911 231.545 141.338 230.754 140.746C229.963 140.155 229.152 139.408 228.322 138.507L222.134 141.889C221.616 142.158 221.1 142.217 220.585 142.066C220.07 141.915 219.701 141.616 219.48 141.169L217.582 137.924C217.251 137.49 217.166 137.027 217.324 136.537C217.483 136.047 217.797 135.696 218.266 135.485L224.454 132.103C223.806 130.026 223.539 127.906 223.652 125.743L216.818 124.006C216.296 123.803 215.897 123.481 215.621 123.041C215.345 122.6 215.29 122.161 215.455 121.722L216.491 118.142C216.643 117.6 216.951 117.198 217.414 116.935C217.877 116.672 218.369 116.642 218.891 116.845L225.816 118.65C226.399 117.587 227.001 116.679 227.622 115.926C228.244 115.173 229.029 114.401 229.976 113.611L226.422 107.723C226.139 107.23 226.065 106.754 226.2 106.292C226.335 105.831 226.661 105.466 227.178 105.197ZM235.299 135.152C237.703 136.949 240.442 137.686 243.515 137.361C246.589 137.036 249.082 135.715 250.994 133.398C252.907 131.081 253.665 128.464 253.269 125.545C252.874 122.627 251.474 120.269 249.07 118.472C246.665 116.674 243.942 115.95 240.899 116.297C237.856 116.645 235.378 117.977 233.465 120.294C231.553 122.611 230.779 125.217 231.144 128.113C231.51 131.008 232.895 133.355 235.299 135.152Z" fill="white"/>
</g>
<g opacity="0.1">
<path opacity="0.34" d="M374.4 207.429L382.101 205.763C383.11 205.447 383.925 204.837 384.544 203.934C385.164 203.03 385.308 202.098 384.976 201.138L381.537 187.633C385.689 185.624 389.295 183.005 392.355 179.776L404.924 187.017C405.952 187.618 406.971 187.76 407.98 187.444C408.989 187.128 409.798 186.556 410.406 185.727L414.532 179.22C415.14 178.391 415.284 177.459 414.963 176.424C414.643 175.389 414.047 174.582 413.176 174.004L400.607 166.763C401.445 164.443 402.014 162.313 402.313 160.375C402.589 158.585 402.676 156.465 402.574 154.013L416.801 150.518C417.787 150.351 418.59 149.816 419.21 148.912C419.829 148.009 419.985 147.002 419.676 145.893L417.656 138.755C417.503 137.668 416.947 136.866 415.986 136.351C415.025 135.836 413.973 135.651 412.83 135.796L398.838 139.324C396.727 135.373 393.986 131.867 390.617 128.807L398.226 116.846C398.677 115.995 398.782 115.058 398.54 114.034C398.298 113.01 397.741 112.208 396.87 111.629L389.997 107.927C388.97 107.326 387.918 107.141 386.841 107.372C385.765 107.602 384.99 108.217 384.516 109.217L376.941 120.955C374.503 120.157 372.265 119.616 370.228 119.331C368.348 119.068 366.041 118.974 363.308 119.049L359.87 105.544C359.538 104.584 358.93 103.852 358.048 103.347C357.165 102.843 356.152 102.664 355.009 102.809L347.274 104.698C346.265 105.014 345.456 105.586 344.848 106.415C344.24 107.244 344.09 108.214 344.399 109.323L347.837 122.828C343.708 124.688 340.114 127.233 337.055 130.461L324.451 123.444C323.423 122.843 322.41 122.664 321.412 122.905C320.414 123.146 319.6 123.756 318.969 124.734L314.843 131.241C314.235 132.07 314.091 133.002 314.411 134.037C314.732 135.072 315.328 135.879 316.199 136.458L328.803 143.475C327.964 145.795 327.396 147.924 327.097 149.863C326.797 151.801 326.699 153.996 326.801 156.448L312.609 159.72C311.443 160.014 310.589 160.618 310.048 161.532C309.506 162.447 309.402 163.384 309.734 164.345L311.719 171.706C311.871 172.793 312.428 173.595 313.389 174.11C314.35 174.625 315.335 174.725 316.345 174.409L330.536 171.137C332.648 175.088 335.389 178.594 338.758 181.654L331.184 193.391C330.709 194.391 330.593 195.403 330.835 196.427C331.077 197.451 331.645 198.178 332.54 198.608L339.377 202.534C340.405 203.135 341.457 203.32 342.533 203.089C343.609 202.859 344.385 202.244 344.859 201.244L352.468 189.283C354.906 190.081 357.144 190.622 359.181 190.906C361.218 191.191 363.525 191.285 366.101 191.188L369.54 204.693C369.849 205.803 370.444 206.609 371.327 207.114C372.21 207.618 373.234 207.723 374.4 207.429ZM342.123 152.077C343.032 146.187 346.008 141.423 351.051 137.787C356.095 134.15 361.751 132.77 368.019 133.646C374.287 134.522 379.287 137.392 383.018 142.255C386.75 147.118 388.161 152.494 387.252 158.384C386.343 164.274 383.373 169 378.341 172.562C373.309 176.124 367.659 177.467 361.391 176.591C355.123 175.715 350.117 172.883 346.374 168.095C342.631 163.306 341.213 157.967 342.123 152.077Z" fill="white"/>
<path opacity="0.5" d="M434.941 347.275C437.716 347.968 440.2 348.467 442.394 348.774C444.588 349.081 447.118 349.282 449.984 349.378L452.194 335.063C456.024 335.141 459.888 334.996 463.787 334.627L467.626 348.645C472.378 347.938 477.277 346.794 482.323 345.215L478.518 330.973C482.062 329.793 485.585 328.228 489.087 326.281L498.111 337.824C502.489 335.389 506.532 332.527 510.242 329.237L501.218 317.694C504.185 315.062 506.773 312.3 508.98 309.41L521.985 316.94C525.182 312.817 527.82 308.692 529.898 304.565L516.893 297.034C518.385 293.587 519.643 290.107 520.665 286.594L535.709 288.696C536.436 286.056 536.961 283.692 537.283 281.604C537.606 279.517 537.817 277.109 537.918 274.381L522.875 272.279C522.957 268.634 522.804 264.957 522.416 261.247L537.113 257.817C536.393 253.146 535.125 248.399 533.308 243.575L518.577 247.229C517.336 243.856 515.681 240.578 513.611 237.395L525.777 228.584C523.218 224.418 520.21 220.57 516.753 217.041L504.622 225.628C501.833 222.953 498.932 220.491 495.917 218.241L503.83 205.866C499.497 202.823 495.162 200.313 490.825 198.336L482.878 210.935C479.278 209.366 475.632 208.094 471.94 207.121L474.15 192.806C471.375 192.114 468.891 191.614 466.697 191.308C464.503 191.001 461.973 190.8 459.107 190.704L456.897 205.019C453.067 204.941 449.191 205.161 445.27 205.679L441.465 191.437C436.713 192.144 431.803 193.362 426.734 195.091L430.573 209.109C427.006 210.438 423.483 212.002 420.004 213.801L410.98 202.258C406.602 204.692 402.559 207.555 398.849 210.845L407.839 222.612C404.894 225.095 402.318 227.781 400.111 230.672L386.871 223.109C383.83 227.254 381.259 231.465 379.159 235.741L392.198 243.047C390.549 246.473 389.291 249.953 388.426 253.488L373.382 251.385C372.655 254.026 372.13 256.39 371.808 258.477C371.485 260.565 371.274 262.973 371.173 265.701L386.216 267.803C385.977 271.426 386.13 275.103 386.675 278.835L371.944 282.489C372.686 287.01 373.888 291.672 375.548 296.474L390.514 292.853C391.911 296.247 393.555 299.6 395.445 302.911L383.314 311.498C385.873 315.664 388.881 319.511 392.338 323.041L404.469 314.454C407.235 317.278 410.136 319.74 413.174 321.84L405.226 334.439C409.582 337.333 413.929 339.769 418.266 341.746L426.179 329.37C429.802 330.791 433.459 331.987 437.151 332.96L434.941 347.275ZM416.937 264.785C418.456 254.943 423.439 247.033 431.886 241.054C440.332 235.074 449.727 232.808 460.069 234.253C470.411 235.699 478.724 240.44 485.007 248.478C491.29 256.516 493.673 265.455 492.154 275.297C490.635 285.139 485.652 293.049 477.205 299.028C468.759 305.007 459.364 307.274 449.022 305.829C438.68 304.383 430.367 299.642 424.084 291.604C417.801 283.566 415.418 274.626 416.937 264.785Z" fill="white"/>
<path d="M517.102 143.999L519.305 140.984C519.56 140.553 519.642 140.078 519.553 139.557C519.464 139.037 519.193 138.655 518.741 138.413L512.824 134.617C513.626 132.59 514.021 130.514 514.007 128.39L521.051 127.062C521.63 126.956 522.046 126.688 522.301 126.258C522.556 125.827 522.65 125.367 522.582 124.877L521.818 121.235C521.751 120.745 521.48 120.364 521.006 120.091C520.532 119.818 520.037 119.714 519.523 119.778L512.479 121.106C511.978 120.006 511.446 119.059 510.883 118.265C510.363 117.533 509.66 116.74 508.775 115.888L512.698 110.165C512.997 109.796 513.101 109.351 513.012 108.83C512.923 108.31 512.63 107.898 512.134 107.595L508.934 105.652C508.503 105.307 508.024 105.193 507.499 105.308C506.974 105.424 506.53 105.687 506.168 106.097L502.34 111.758C500.21 110.994 498.007 110.588 495.731 110.54L494.335 103.837C494.204 103.389 493.917 103.018 493.475 102.724C493.033 102.43 492.555 102.316 492.04 102.38L488.277 103.199C487.699 103.304 487.255 103.567 486.946 103.988C486.638 104.408 486.571 104.873 486.746 105.383L488.076 111.994C486.92 112.471 485.925 112.977 485.092 113.513C484.322 114.008 483.457 114.697 482.497 115.581L476.579 111.785C476.127 111.543 475.654 111.469 475.161 111.564C474.668 111.658 474.24 111.911 473.878 112.322L471.74 115.429C471.486 115.86 471.392 116.32 471.459 116.81C471.527 117.3 471.809 117.696 472.304 118L478.222 121.796C477.376 123.762 476.959 125.807 476.973 127.931L469.995 129.351C469.416 129.457 468.988 129.709 468.711 130.109C468.435 130.509 468.352 130.985 468.463 131.536L469.227 135.178C469.295 135.667 469.565 136.049 470.039 136.322C470.513 136.595 471.008 136.699 471.523 136.635L478.501 135.215C479.002 136.316 479.534 137.262 480.097 138.056C480.66 138.849 481.385 139.672 482.271 140.525L478.282 146.156C477.963 146.628 477.864 147.113 477.985 147.613C478.106 148.113 478.393 148.484 478.846 148.727L482.111 150.761C482.543 151.105 483.021 151.22 483.546 151.105C484.071 150.989 484.461 150.716 484.716 150.286L488.705 144.655C490.835 145.419 493.038 145.825 495.314 145.873L496.645 152.484C496.82 152.994 497.128 153.395 497.57 153.689C498.012 153.983 498.469 154.067 498.94 153.941L502.768 153.214C503.347 153.109 503.79 152.846 504.099 152.425C504.408 152.005 504.474 151.54 504.299 151.03L502.904 144.327C504.06 143.851 505.055 143.344 505.889 142.808C506.722 142.272 507.587 141.583 508.484 140.74L514.401 144.536C514.897 144.84 515.391 144.944 515.884 144.849C516.377 144.754 516.783 144.471 517.102 143.999ZM486.287 134.144C484.575 131.733 484 129.08 484.561 126.187C485.122 123.293 486.685 121.021 489.251 119.372C491.816 117.723 494.614 117.191 497.645 117.776C500.676 118.361 503.047 119.859 504.758 122.269C506.47 124.68 507.034 127.317 506.451 130.18C505.869 133.044 504.295 135.3 501.729 136.949C499.164 138.599 496.377 139.146 493.368 138.591C490.359 138.037 487.998 136.554 486.287 134.144Z" fill="white"/>
</g>
</g>
</svg>
