<svg width="25" height="24" viewBox="0 0 25 24" fill="none" xmlns="http://www.w3.org/2000/svg">
<g clip-path="url(#clip0_6337_7009)">
<path d="M11.238 3.85923L2.76802 17.9992C2.59339 18.3017 2.50099 18.6445 2.50001 18.9937C2.49903 19.343 2.58951 19.6864 2.76245 19.9898C2.93538 20.2931 3.18474 20.546 3.48573 20.7231C3.78671 20.9002 4.12882 20.9954 4.47802 20.9992H21.418C21.7672 20.9954 22.1093 20.9002 22.4103 20.7231C22.7113 20.546 22.9607 20.2931 23.1336 19.9898C23.3065 19.6864 23.397 19.343 23.396 18.9937C23.3951 18.6445 23.3027 18.3017 23.128 17.9992L14.658 3.85923C14.4797 3.56533 14.2287 3.32235 13.9292 3.15371C13.6297 2.98508 13.2918 2.89648 12.948 2.89648C12.6043 2.89648 12.2663 2.98508 11.9668 3.15371C11.6673 3.32235 11.4163 3.56533 11.238 3.85923V3.85923Z" stroke="#003750" stroke-width="2" stroke-linecap="round" stroke-linejoin="round"/>
<path d="M12.5 9V13" stroke="#003750" stroke-width="2" stroke-linecap="round" stroke-linejoin="round"/>
<path d="M12.5 17H12.51" stroke="#003750" stroke-width="2" stroke-linecap="round" stroke-linejoin="round"/>
</g>
<defs>
<clipPath id="clip0_6337_7009">
<rect width="24" height="24" fill="white" transform="translate(0.5)"/>
</clipPath>
</defs>
</svg>
