<svg width="25" height="24" viewBox="0 0 25 24" fill="none" xmlns="http://www.w3.org/2000/svg">
<path d="M12.5 22C18.0228 22 22.5 17.5228 22.5 12C22.5 6.47715 18.0228 2 12.5 2C6.97715 2 2.5 6.47715 2.5 12C2.5 17.5228 6.97715 22 12.5 22Z" stroke="#003750" stroke-width="2" stroke-linecap="round" stroke-linejoin="round"/>
<path d="M9.59375 9.00057C9.82885 8.33224 10.2929 7.76868 10.9037 7.4097C11.5145 7.05073 12.2326 6.91951 12.9309 7.03928C13.6292 7.15906 14.2626 7.52209 14.7188 8.0641C15.1751 8.6061 15.4248 9.29209 15.4237 10.0006C15.4237 12.0006 12.4237 13.0006 12.4237 13.0006" stroke="#003750" stroke-width="2" stroke-linecap="round" stroke-linejoin="round"/>
<path d="M12.5 17H12.51" stroke="#003750" stroke-width="2" stroke-linecap="round" stroke-linejoin="round"/>
</svg>
