<svg width="25" height="25" viewBox="0 0 25 25" fill="none" xmlns="http://www.w3.org/2000/svg">
<path d="M19.5 3.5H5.5C4.39543 3.5 3.5 4.39543 3.5 5.5V19.5C3.5 20.6046 4.39543 21.5 5.5 21.5H19.5C20.6046 21.5 21.5 20.6046 21.5 19.5V5.5C21.5 4.39543 20.6046 3.5 19.5 3.5Z" stroke="#003750" stroke-width="2" stroke-linecap="round" stroke-linejoin="round"/>
<path d="M17.7 8.5H7.3C6.58203 8.5 6 8.83579 6 9.25V10.75C6 11.1642 6.58203 11.5 7.3 11.5H17.7C18.418 11.5 19 11.1642 19 10.75V9.25C19 8.83579 18.418 8.5 17.7 8.5Z" stroke="#003750" stroke-width="1.5" stroke-linecap="round" stroke-linejoin="round"/>
<path d="M17.7 14.5H7.3C6.58203 14.5 6 14.8358 6 15.25V16.75C6 17.1642 6.58203 17.5 7.3 17.5H17.7C18.418 17.5 19 17.1642 19 16.75V15.25C19 14.8358 18.418 14.5 17.7 14.5Z" stroke="#003750" stroke-width="1.5" stroke-linecap="round" stroke-linejoin="round"/>
</svg>
