<svg width="296" height="33" viewBox="0 0 296 33" fill="none" xmlns="http://www.w3.org/2000/svg">
<path d="M18.1912 26.5195L0 18.5131V16.2601L18.1912 7.17383V10.8046L4.54316 17.2097L18.1912 22.8514V26.5195Z" fill="white"/>
<path d="M98.8088 7.24224L117 15.2486L117 17.5016L98.8088 26.5879L98.8088 22.9571L112.457 16.552L98.8088 10.9103L98.8088 7.24224Z" fill="white"/>
<path d="M66.6934 10.9147C66.7561 11.0624 66.7272 11.3472 66.6222 11.5008L66.2044 12.1951C66.1304 12.3368 65.8935 12.4951 65.7341 12.5092L63.3686 12.7155C62.8615 12.7603 62.399 13.1701 62.2897 13.6939L62.0694 15.1606C62.0253 15.6474 62.3612 16.2009 62.8156 16.3879L65.0155 17.2817C65.1536 17.3373 65.3374 17.54 65.3786 17.7467L65.5744 18.5314C65.6218 18.6838 65.5663 18.964 65.4628 19.0867L63.9352 20.9057C63.6114 21.2914 63.565 21.9065 63.8261 22.3377C63.8261 22.3377 63.986 22.6022 64.2599 22.9732C64.5338 23.3442 64.7394 23.575 64.74 23.5757C64.915 23.7623 65.1419 23.8922 65.3915 23.9487C65.6411 24.0051 65.9018 23.9855 66.1401 23.8924L68.3289 22.9688C68.4759 22.9066 68.7602 22.9348 68.9137 23.0398L69.608 23.4576C69.7386 23.5255 69.9096 23.7795 69.9221 23.9279L70.1285 26.2934C70.1466 26.5016 70.2266 26.7071 70.3609 26.889C70.5427 27.1352 70.8049 27.3098 71.1062 27.3729L72.5729 27.5931C72.8294 27.6103 73.0849 27.5478 73.3046 27.4143C73.5243 27.2807 73.6973 27.0826 73.8001 26.8469L74.6939 24.6471C74.7542 24.4989 74.9754 24.3191 75.1589 24.2839L75.9437 24.0882C76.096 24.0407 76.3762 24.0962 76.4989 24.1997L78.3179 25.7274C78.5185 25.8864 78.762 25.9818 79.0172 26.0012C79.2724 26.0206 79.5276 25.9633 79.75 25.8365C79.75 25.8365 80.0144 25.6765 80.3854 25.4026C80.7564 25.1287 80.9872 24.9231 80.9879 24.9226C81.1744 24.7474 81.3043 24.5204 81.3609 24.2708C81.4175 24.0212 81.3981 23.7604 81.3053 23.5219L80.3809 21.3349C80.3181 21.1872 80.3471 20.9024 80.452 20.7489L80.8698 20.0546C80.9438 19.9129 81.1807 19.7545 81.3401 19.7404L83.7056 19.5341C84.2127 19.4893 84.6753 19.0795 84.7846 18.5557L85.0048 17.089C85.0491 16.601 84.7127 16.0468 84.2586 15.8617L82.0588 14.968C81.9214 14.9118 81.7356 14.7094 81.6956 14.503L81.4999 13.7182C81.4524 13.5658 81.5085 13.2863 81.6119 13.1636L83.1391 11.3439C83.2981 11.1434 83.3935 10.8998 83.4129 10.6446C83.4323 10.3894 83.375 10.1342 83.2482 9.91187C83.2464 9.91097 83.0865 9.64652 82.8125 9.2755C82.5386 8.90448 82.333 8.67376 82.3325 8.67304C82.1573 8.4865 81.9303 8.35659 81.6807 8.30003C81.4311 8.24346 81.1703 8.26281 80.9318 8.35559L78.7456 9.27953C78.5979 9.34227 78.313 9.31333 78.1595 9.20841L77.4652 8.79057C77.3341 8.722 77.1643 8.46813 77.1511 8.32027L76.9453 5.95549C76.9016 5.4663 76.4909 4.98462 75.9675 4.87601L74.5009 4.6558C74.2443 4.6386 73.9888 4.70105 73.7691 4.83461C73.5494 4.96818 73.3764 5.16633 73.2736 5.40198L72.3798 7.60183C72.3195 7.75002 72.0983 7.92981 71.9148 7.96496L71.1301 8.16071C70.9777 8.20816 70.6975 8.15265 70.5748 8.0492L68.7558 6.52151C68.5552 6.3625 68.3117 6.26714 68.0565 6.24769C67.8013 6.22825 67.5461 6.28562 67.3237 6.41242C67.3248 6.41385 67.0604 6.57379 66.6893 6.8477C66.3183 7.12161 66.0876 7.32722 66.0869 7.32775C65.9003 7.50295 65.7704 7.72993 65.7139 7.97952C65.6573 8.22911 65.6766 8.48992 65.7694 8.72843L66.6934 10.9147Z" fill="#EA4916"/>
<path d="M69.4608 19.1336C71.1205 21.3818 74.2987 21.8603 76.5468 20.2006C78.795 18.5409 79.2736 15.3627 77.6138 13.1146C75.9541 10.8664 72.7759 10.3878 70.5278 12.0476C68.2796 13.7073 67.8011 16.8855 69.4608 19.1336ZM76.5958 13.8662C77.8405 15.5522 77.4813 17.9378 75.7952 19.1826C74.1091 20.4273 71.7236 20.0681 70.4788 18.382C69.2341 16.6959 69.5933 14.3104 71.2794 13.0656C72.9655 11.8209 75.351 12.1801 76.5958 13.8662Z" fill="#FCFCFC" stroke="white" stroke-width="0.378578"/>
<path d="M45.6658 10.2591C45.7136 10.4123 45.6565 10.6929 45.5368 10.8352L45.052 11.4845C44.9643 11.6182 44.7128 11.7522 44.5528 11.7503L42.1785 11.7205C41.6695 11.7146 41.1685 12.0764 41.0076 12.5868L40.6427 14.0243C40.5504 14.5042 40.8296 15.0884 41.2632 15.3197L43.3632 16.4277C43.4951 16.4968 43.6579 16.7168 43.6783 16.9265L43.7951 17.7269C43.8272 17.8832 43.7441 18.1565 43.6289 18.2683L41.928 19.9264C41.5674 20.2779 41.4602 20.8854 41.677 21.3405C41.677 21.3405 41.8099 21.6195 42.0456 22.0159C42.2812 22.4124 42.4629 22.6624 42.4633 22.6632C42.6189 22.8663 42.8318 23.0181 43.0745 23.0991C43.3173 23.1801 43.5787 23.1865 43.8251 23.1175L46.0948 22.4161C46.2472 22.3689 46.5273 22.4252 46.6697 22.5449L47.319 23.0297C47.4421 23.1102 47.5871 23.38 47.5848 23.5289L47.5549 25.9032C47.5522 26.1121 47.6114 26.3246 47.727 26.519C47.8834 26.782 48.127 26.9817 48.4205 27.0745L49.858 27.4394C50.1115 27.4821 50.372 27.4453 50.6039 27.3343C50.8357 27.2232 51.0276 27.0432 51.1533 26.819L52.2614 24.7189C52.3362 24.5774 52.5741 24.4205 52.7602 24.4038L53.5606 24.287C53.7169 24.255 53.9902 24.3381 54.102 24.4532L55.7601 26.1542C55.9438 26.3323 56.1767 26.4514 56.4287 26.4962C56.6807 26.5409 56.9403 26.5092 57.1742 26.4051C57.1742 26.4051 57.4532 26.2722 57.8496 26.0366C58.246 25.8009 58.4961 25.6193 58.4968 25.6188C58.6999 25.463 58.8517 25.2501 58.9328 25.0074C59.0139 24.7646 59.0206 24.5032 58.952 24.2566L58.2495 21.9886C58.2018 21.8354 58.2589 21.5548 58.3786 21.4125L58.8634 20.7632C58.951 20.6295 59.2026 20.4955 59.3626 20.4974L61.7368 20.5272C62.2459 20.5331 62.7469 20.1713 62.9077 19.6609L63.2727 18.2234C63.3653 17.7422 63.0857 17.1573 62.6522 16.928L60.5521 15.82C60.421 15.7504 60.2562 15.5306 60.237 15.3212L60.1203 14.5208C60.0882 14.3645 60.1717 14.092 60.2869 13.9802L61.9874 12.3213C62.1656 12.1376 62.2847 11.9047 62.3294 11.6527C62.3741 11.4007 62.3424 11.141 62.2383 10.9072C62.2367 10.9061 62.1038 10.6271 61.8681 10.2307C61.6325 9.83427 61.4508 9.58424 61.4504 9.58348C61.2946 9.38043 61.0816 9.22861 60.8389 9.14751C60.5962 9.0664 60.3347 9.05973 60.0882 9.12833L57.8209 9.83033C57.6677 9.87808 57.3871 9.82097 57.2448 9.70129L56.5955 9.2165C56.4719 9.13523 56.3282 8.86574 56.3297 8.7173L56.36 6.34377C56.3652 5.85266 56.0044 5.33254 55.4945 5.17243L54.0569 4.80749C53.8034 4.76487 53.5429 4.8016 53.311 4.91266C53.0792 5.02372 52.8873 5.20369 52.7616 5.42795L51.6535 7.52804C51.5787 7.66949 51.3408 7.82641 51.1547 7.84314L50.3544 7.95989C50.198 7.99196 49.9247 7.90887 49.813 7.79373L48.1548 6.09276C47.9711 5.9146 47.7382 5.79549 47.4862 5.75077C47.2342 5.70605 46.9746 5.73777 46.7407 5.84183C46.7416 5.84336 46.4626 5.97622 46.0662 6.21188C45.6698 6.44755 45.4198 6.6292 45.419 6.62965C45.2159 6.78544 45.0641 6.99838 44.983 7.24111C44.9019 7.48384 44.8952 7.74527 44.9638 7.99183L45.6658 10.2591Z" fill="#EA4916"/>
<path d="M47.6024 18.7123C49.0304 21.1143 52.1452 21.9065 54.5473 20.4785C56.9493 19.0505 57.7415 15.9356 56.3135 13.5336C54.8855 11.1316 51.7707 10.3394 49.3686 11.7674C46.9666 13.1953 46.1744 16.3102 47.6024 18.7123ZM55.2257 14.1803C56.2967 15.9818 55.7021 18.3198 53.9006 19.3907C52.0991 20.4617 49.7611 19.8671 48.6901 18.0656C47.6192 16.2641 48.2138 13.9261 50.0153 12.8551C51.8168 11.7842 54.1548 12.3788 55.2257 14.1803Z" fill="#FCFCFC" stroke="white" stroke-width="0.378578"/>
<path d="M34.3044 22.3819V3.90938H25.0681V8.5275H29.6863V22.3819H25.0681V27H38.9225V22.3819H34.3044Z" fill="#EA4916"/>
<path d="M95.3111 5.00977L89.7199 28.3688H86.8828L92.4741 5.00977H95.3111Z" fill="white"/>
<path d="M137.136 25.6816H140.989L134.455 7.48442H130.211L123.677 25.6816H127.504L128.701 22.2192H135.939L137.136 25.6816ZM134.949 19.3035H129.691L132.32 11.7018L134.949 19.3035ZM157.047 11.2592H153.376V19.1994C153.376 21.5163 152.126 22.7659 150.148 22.7659C148.222 22.7659 146.946 21.5163 146.946 19.1994V11.2592H143.301V19.72C143.301 23.6771 145.722 25.8639 149.081 25.8639C150.877 25.8639 152.465 25.0829 153.376 23.8593V25.6816H157.047V11.2592ZM161.216 21.2039C161.216 24.5101 163.064 25.6816 165.823 25.6816H168.114V22.6097H166.422C165.277 22.6097 164.886 22.1932 164.886 21.23V14.2531H168.114V11.2592H164.886V7.69268H161.216V11.2592H159.497V14.2531H161.216V21.2039ZM184.664 18.4704C184.664 13.9146 181.409 11.0249 177.244 11.0249C173.079 11.0249 169.825 13.9146 169.825 18.4704C169.825 23.0002 172.975 25.9159 177.14 25.9159C181.331 25.9159 184.664 23.0002 184.664 18.4704ZM173.521 18.4704C173.521 15.5808 175.266 14.201 177.192 14.201C179.118 14.201 180.915 15.5808 180.915 18.4704C180.915 21.3341 179.066 22.7399 177.14 22.7399C175.187 22.7399 173.521 21.3341 173.521 18.4704ZM207.513 25.6816H211.157V17.2208C211.157 13.2378 208.71 11.051 205.248 11.051C203.139 11.051 201.239 12.1704 200.302 13.8105C199.312 12.0142 197.464 11.051 195.225 11.051C193.429 11.051 191.893 11.8059 190.982 13.0035V11.2592H187.337V25.6816H190.982V17.7155C190.982 15.4246 192.257 14.227 194.236 14.227C196.162 14.227 197.438 15.4246 197.438 17.7155V25.6816H201.083V17.7155C201.083 15.4246 202.358 14.227 204.311 14.227C206.237 14.227 207.513 15.4246 207.513 17.7155V25.6816ZM213.679 18.4184C213.679 22.9221 216.595 25.9159 220.239 25.9159C222.53 25.9159 224.17 24.8225 225.029 23.5729V25.6816H228.7V11.2592H225.029V13.3159C224.17 12.1183 222.582 11.0249 220.265 11.0249C216.595 11.0249 213.679 13.9146 213.679 18.4184ZM225.029 18.4704C225.029 21.2039 223.207 22.7139 221.202 22.7139C219.25 22.7139 217.402 21.1519 217.402 18.4184C217.402 15.6849 219.25 14.227 221.202 14.227C223.207 14.227 225.029 15.7369 225.029 18.4704ZM232.832 21.2039C232.832 24.5101 234.681 25.6816 237.44 25.6816H239.731V22.6097H238.039C236.894 22.6097 236.503 22.1932 236.503 21.23V14.2531H239.731V11.2592H236.503V7.69268H232.832V11.2592H231.114V14.2531H232.832V21.2039ZM242.353 25.6816H245.997V11.2592H242.353V25.6816ZM244.201 9.54104C245.477 9.54104 246.44 8.60385 246.44 7.40632C246.44 6.20879 245.477 5.27159 244.201 5.27159C242.899 5.27159 241.962 6.20879 241.962 7.40632C241.962 8.60385 242.899 9.54104 244.201 9.54104ZM263.526 18.4704C263.526 13.9146 260.272 11.0249 256.106 11.0249C251.941 11.0249 248.687 13.9146 248.687 18.4704C248.687 23.0002 251.837 25.9159 256.002 25.9159C260.194 25.9159 263.526 23.0002 263.526 18.4704ZM252.384 18.4704C252.384 15.5808 254.128 14.201 256.054 14.201C257.981 14.201 259.777 15.5808 259.777 18.4704C259.777 21.3341 257.929 22.7399 256.002 22.7399C254.05 22.7399 252.384 21.3341 252.384 18.4704ZM276.3 25.6816H279.945V17.2208C279.945 13.2378 277.55 11.051 274.192 11.051C272.343 11.051 270.781 11.832 269.844 13.0555V11.2592H266.199V25.6816H269.844V17.7155C269.844 15.3985 271.12 14.1489 273.098 14.1489C275.025 14.1489 276.3 15.3985 276.3 17.7155V25.6816ZM294.605 21.5684C294.501 16.2836 286.509 17.9237 286.509 15.2944C286.509 14.4613 287.212 13.9146 288.565 13.9146C289.997 13.9146 290.882 14.6696 290.986 15.789H294.475C294.267 12.9254 292.158 11.0249 288.67 11.0249C285.103 11.0249 282.968 12.9514 282.968 15.3465C282.968 20.6312 291.117 18.9911 291.117 21.5684C291.117 22.4015 290.336 23.0523 288.904 23.0523C287.446 23.0523 286.431 22.2192 286.3 21.1258H282.63C282.786 23.8072 285.311 25.9159 288.93 25.9159C292.444 25.9159 294.605 24.0415 294.605 21.5684Z" fill="white"/>
</svg>
