<svg width="21" height="20" viewBox="0 0 21 20" fill="none" xmlns="http://www.w3.org/2000/svg">
<path d="M19.4774 10.8091C19.3201 12.5113 18.6813 14.1335 17.6357 15.4859C16.5901 16.8383 15.1809 17.8649 13.5731 18.4456C11.9654 19.0264 10.2254 19.1372 8.55694 18.7652C6.88846 18.3932 5.36043 17.5536 4.15167 16.3449C2.9429 15.1361 2.10338 13.6081 1.73135 11.9396C1.35932 10.2711 1.47016 8.53118 2.0509 6.92339C2.63164 5.3156 3.65827 3.90646 5.01065 2.86085C6.36304 1.81523 7.98524 1.1764 9.68744 1.01909C8.69085 2.36736 8.21129 4.02854 8.33597 5.70051C8.46066 7.37247 9.1813 8.94415 10.3668 10.1297C11.5524 11.3152 13.1241 12.0359 14.796 12.1606C16.468 12.2852 18.1292 11.8057 19.4774 10.8091Z" stroke="#003750" stroke-width="2" stroke-linecap="round" stroke-linejoin="round"/>
</svg>
