<svg width="668" height="630" viewBox="0 0 668 630" fill="none" xmlns="http://www.w3.org/2000/svg">
<rect width="668" height="630" rx="14" fill="#003750"/>
<g opacity="0.6">
<g opacity="0.1">
<path opacity="0.7" d="M600.284 140.578L593.959 138.654C593.136 138.317 592.495 137.733 592.034 136.903C591.574 136.073 591.513 135.246 591.851 134.424L595.573 122.781C592.233 120.768 589.388 118.254 587.037 115.238L576.086 120.836C575.19 121.302 574.33 121.365 573.507 121.028C572.685 120.69 572.046 120.139 571.59 119.375L568.556 113.418C568.1 112.654 568.039 111.828 568.372 110.939C568.705 110.05 569.253 109.378 570.017 108.923L580.968 103.324C580.415 101.238 580.074 99.3358 579.947 97.6169C579.829 96.0303 579.89 94.1646 580.13 92.0197L568.472 88.0986C567.659 87.893 567.022 87.3752 566.562 86.5452C566.102 85.7152 566.035 84.8228 566.363 83.8678L568.5 77.7268C568.696 76.7817 569.211 76.1119 570.046 75.7176C570.881 75.3233 571.771 75.2241 572.716 75.4198L584.176 79.3557C586.188 76.0157 588.697 73.1042 591.704 70.6211L586.105 59.6697C585.782 58.896 585.754 58.0672 586.02 57.1833C586.287 56.2993 586.802 55.6296 587.566 55.1741L593.538 52.3381C594.434 51.8728 595.324 51.7735 596.208 52.0403C597.092 52.3071 597.7 52.8934 598.033 53.7993L603.617 64.5524C605.703 63.9988 607.606 63.6582 609.325 63.5307C610.911 63.413 612.843 63.4691 615.12 63.699L618.843 52.056C619.181 51.2333 619.734 50.6272 620.503 50.2378C621.272 49.8484 622.128 49.7516 623.074 49.9474L629.413 52.0695C630.236 52.4073 630.875 52.9581 631.33 53.722C631.786 54.4859 631.85 55.3453 631.522 56.3002L627.799 67.9432C631.129 69.8232 633.969 72.2714 636.32 75.2876L647.287 69.8875C648.183 69.4222 649.04 69.3254 649.857 69.597C650.675 69.8687 651.317 70.4526 651.782 71.3487L654.816 77.3055C655.272 78.0694 655.333 78.8957 655 79.7846C654.667 80.6734 654.119 81.3456 653.355 81.8011L642.389 87.2013C642.943 89.2873 643.283 91.1897 643.411 92.9085C643.538 94.6274 643.482 96.5592 643.242 98.7041L654.885 102.427C655.84 102.755 656.515 103.336 656.909 104.171C657.304 105.006 657.332 105.835 656.994 106.658L654.872 112.997C654.676 113.942 654.161 114.612 653.326 115.006C652.491 115.4 651.662 115.429 650.84 115.091L639.197 111.368C637.184 114.708 634.675 117.62 631.669 120.103L637.252 130.856C637.585 131.762 637.619 132.657 637.352 133.541C637.085 134.424 636.565 135.028 635.791 135.351L629.834 138.386C628.938 138.851 628.048 138.95 627.164 138.684C626.28 138.417 625.672 137.83 625.339 136.925L619.74 125.973C617.654 126.527 615.752 126.867 614.033 126.995C612.314 127.122 610.382 127.066 608.237 126.827L604.515 138.469C604.187 139.424 603.638 140.097 602.869 140.486C602.101 140.875 601.239 140.906 600.284 140.578ZM630.725 93.9494C630.338 88.7268 628.153 84.3688 624.172 80.8753C620.19 77.3817 615.555 75.8312 610.266 76.2235C604.978 76.6159 600.622 78.8335 597.199 82.8763C593.777 86.9192 592.259 91.5519 592.647 96.7744C593.034 101.997 595.216 106.322 599.193 109.749C603.17 113.177 607.803 114.694 613.091 114.302C618.38 113.91 622.738 111.725 626.165 107.748C629.593 103.772 631.113 99.172 630.725 93.9494Z" fill="white"/>
<path opacity="0.4" d="M540.917 259.648C538.557 260.089 536.451 260.378 534.6 260.515C532.749 260.653 530.624 260.678 528.224 260.59L527.283 247.897C524.08 247.736 520.863 247.376 517.631 246.818L513.541 258.887C509.618 257.982 505.6 256.685 501.486 254.996L505.562 242.728C502.677 241.48 499.834 239.896 497.033 237.977L488.77 247.563C485.269 245.164 482.073 242.41 479.184 239.301L487.446 229.714C485.135 227.227 483.148 224.649 481.488 221.98L470.155 227.806C467.745 223.997 465.803 220.219 464.329 216.473L475.662 210.647C474.633 207.532 473.803 204.403 473.171 201.26L460.478 202.201C460.037 199.841 459.748 197.735 459.61 195.884C459.473 194.033 459.448 191.908 459.536 189.508L472.229 188.567C472.39 185.364 472.75 182.147 473.308 178.915L461.253 175.023C462.149 170.968 463.507 166.879 465.329 162.756L477.398 166.846C478.646 163.961 480.235 161.184 482.164 158.515L472.562 150.055C474.962 146.553 477.716 143.357 480.825 140.468L490.412 148.73C492.909 146.551 495.487 144.565 498.146 142.772L492.32 131.439C496.129 129.029 499.907 127.087 503.653 125.613L509.494 137.144C512.598 135.983 515.723 135.087 518.866 134.455L517.925 121.762C520.285 121.321 522.391 121.032 524.242 120.895C526.093 120.757 528.218 120.732 530.617 120.82L531.559 133.513C534.762 133.674 537.984 134.1 541.226 134.79L545.301 122.523C549.224 123.428 553.247 124.792 557.37 126.613L553.28 138.682C556.174 140.062 559.017 141.646 561.809 143.433L570.071 133.847C573.573 136.246 576.769 139 579.658 142.109L571.41 151.894C573.712 154.249 575.693 156.761 577.354 159.43L588.885 153.589C591.163 157.408 593.044 161.257 594.528 165.135L583.18 170.763C584.341 173.868 585.171 176.997 585.671 180.15L598.364 179.209C598.805 181.569 599.094 183.675 599.231 185.526C599.369 187.377 599.393 189.502 599.306 191.902L586.613 192.843C586.584 196.036 586.224 199.253 585.534 202.495L597.603 206.585C596.698 210.508 595.4 214.526 593.711 218.64L581.444 214.564C580.063 217.459 578.48 220.301 576.693 223.093L586.279 231.355C583.88 234.857 581.126 238.053 578.017 240.942L568.43 232.68C565.943 234.991 563.365 236.977 560.696 238.638L566.537 250.169C562.718 252.447 558.935 254.323 555.189 255.797L549.363 244.464C546.248 245.493 543.119 246.323 539.975 246.955L540.917 259.648ZM561.153 188.351C560.505 179.624 556.844 172.385 550.169 166.632C543.494 160.878 535.793 158.326 527.067 158.973C518.34 159.62 511.101 163.282 505.347 169.957C499.594 176.632 497.041 184.333 497.689 193.059C498.336 201.786 501.998 209.025 508.673 214.778C515.348 220.532 523.049 223.084 531.775 222.437C540.501 221.79 547.741 218.128 553.494 211.453C559.247 204.778 561.8 197.077 561.153 188.351Z" fill="white"/>
<path opacity="0.2" d="M485.137 76.36L483.489 73.5817C483.303 73.1887 483.264 72.7666 483.371 72.3154C483.479 71.8641 483.729 71.5457 484.122 71.3601L489.302 68.3848C488.759 66.558 488.561 64.713 488.706 62.8499L482.909 61.2618C482.433 61.1345 482.101 60.8743 481.916 60.4813C481.73 60.0883 481.681 59.6789 481.768 59.2532L482.636 56.1035C482.723 55.6777 482.973 55.3593 483.386 55.1482C483.799 54.9371 484.219 54.8752 484.645 54.9625L490.442 56.5506C490.929 55.6153 491.433 54.8165 491.954 54.1541C492.434 53.5428 493.071 52.8895 493.864 52.1944L490.949 46.938C490.723 46.596 490.664 46.1993 490.771 45.7481C490.879 45.2968 491.149 44.9529 491.582 44.7163L494.376 43.2041C494.758 42.9275 495.165 42.8556 495.596 42.9884C496.028 43.1212 496.382 43.3787 496.658 43.7607L499.497 48.9571C501.324 48.4147 503.189 48.1908 505.092 48.2853L506.68 42.4882C506.818 42.1024 507.081 41.794 507.469 41.5629C507.856 41.3318 508.263 41.2599 508.689 41.3472L511.778 42.2913C512.255 42.4186 512.609 42.6761 512.84 43.0636C513.071 43.4512 513.097 43.8633 512.919 44.3L511.391 50.0206C512.326 50.5082 513.125 51.0122 513.788 51.5325C514.399 52.0128 515.078 52.6696 515.824 53.5029L521.004 50.5276C521.397 50.342 521.796 50.3056 522.202 50.4184C522.608 50.5311 522.949 50.7786 523.225 51.1606L524.814 54.0154C525 54.4084 525.049 54.8177 524.962 55.2435C524.874 55.6693 524.614 56.0005 524.181 56.237L519.001 59.2123C519.583 60.9881 519.802 62.8076 519.656 64.6708L525.394 66.3353C525.87 66.4626 526.211 66.71 526.417 67.0776C526.623 67.4451 526.662 67.8672 526.535 68.3439L525.667 71.4936C525.58 71.9194 525.329 72.2378 524.916 72.4489C524.503 72.66 524.084 72.7219 523.658 72.6346L517.921 70.9701C517.434 71.9054 516.93 72.7042 516.409 73.3665C515.889 74.0289 515.232 74.7076 514.439 75.4027L517.414 80.5827C517.651 81.0157 517.703 81.4478 517.57 81.879C517.437 82.3103 517.174 82.6187 516.781 82.8043L513.926 84.393C513.544 84.6696 513.138 84.7415 512.706 84.6087C512.275 84.4759 511.967 84.213 511.781 83.82L508.806 78.64C506.979 79.1824 505.114 79.4063 503.211 79.3118L501.683 85.0325C501.505 85.4692 501.222 85.8031 500.834 86.0342C500.447 86.2653 500.06 86.3117 499.674 86.1735L496.525 85.3058C496.048 85.1784 495.694 84.921 495.463 84.5335C495.232 84.1459 495.205 83.7338 495.384 83.2971L496.972 77.5C496.036 77.0125 495.238 76.5085 494.575 75.9882C493.913 75.4678 493.234 74.811 492.539 74.0178L487.359 76.9931C486.926 77.2296 486.507 77.2915 486.101 77.1787C485.695 77.066 485.374 76.793 485.137 76.36ZM511.488 69.5623C513.069 67.5498 513.717 65.2571 513.431 62.6843C513.145 60.1116 511.983 58.0247 509.945 56.4236C507.907 54.8226 505.605 54.1878 503.037 54.5191C500.47 54.8504 498.396 56.0223 496.815 58.0348C495.234 60.0473 494.596 62.3272 494.902 64.8745C495.208 67.4218 496.38 69.496 498.418 71.097C500.456 72.6981 502.748 73.3457 505.296 73.0398C507.843 72.7339 509.907 71.5748 511.488 69.5623Z" fill="white"/>
</g>
<g opacity="0.1">
<path opacity="0.8" d="M125.117 229.239L127.041 222.914C127.379 222.092 127.963 221.45 128.793 220.99C129.623 220.529 130.449 220.468 131.272 220.806L142.915 224.528C144.927 221.188 147.441 218.343 150.457 215.992L144.859 205.041C144.394 204.145 144.33 203.285 144.668 202.462C145.006 201.64 145.556 201.001 146.32 200.545L152.277 197.511C153.041 197.055 153.867 196.994 154.756 197.327C155.645 197.66 156.317 198.208 156.773 198.972L162.371 209.923C164.457 209.37 166.36 209.029 168.078 208.902C169.665 208.784 171.531 208.845 173.676 209.085L177.597 197.427C177.802 196.614 178.32 195.977 179.15 195.517C179.98 195.057 180.873 194.99 181.827 195.318L187.969 197.455C188.914 197.651 189.583 198.166 189.978 199.001C190.372 199.836 190.471 200.726 190.275 201.671L186.34 213.131C189.68 215.143 192.591 217.652 195.074 220.659L206.026 215.06C206.799 214.737 207.628 214.709 208.512 214.975C209.396 215.242 210.066 215.758 210.521 216.521L213.357 222.493C213.823 223.389 213.922 224.279 213.655 225.163C213.388 226.047 212.802 226.655 211.896 226.989L201.143 232.572C201.697 234.658 202.037 236.561 202.165 238.28C202.282 239.866 202.226 241.798 201.996 244.075L213.639 247.798C214.462 248.136 215.068 248.689 215.457 249.458C215.847 250.227 215.944 251.084 215.748 252.029L213.626 258.368C213.288 259.191 212.737 259.83 211.973 260.285C211.209 260.741 210.35 260.805 209.395 260.477L197.752 256.754C195.872 260.084 193.424 262.925 190.408 265.275L195.808 276.242C196.273 277.138 196.37 277.995 196.098 278.812C195.827 279.63 195.243 280.272 194.347 280.737L188.39 283.772C187.626 284.227 186.8 284.288 185.911 283.955C185.022 283.623 184.35 283.074 183.894 282.31L178.494 271.344C176.408 271.898 174.506 272.238 172.787 272.366C171.068 272.493 169.136 272.437 166.991 272.198L163.268 283.841C162.94 284.795 162.359 285.47 161.524 285.864C160.689 286.259 159.86 286.287 159.038 285.949L152.698 283.827C151.753 283.631 151.083 283.116 150.689 282.281C150.295 281.446 150.267 280.617 150.604 279.795L154.327 268.152C150.987 266.139 148.076 263.63 145.593 260.624L134.839 266.207C133.934 266.54 133.039 266.574 132.155 266.307C131.271 266.04 130.667 265.52 130.344 264.746L127.31 258.789C126.844 257.893 126.745 257.003 127.012 256.119C127.279 255.235 127.865 254.627 128.771 254.294L139.722 248.695C139.169 246.609 138.828 244.707 138.701 242.988C138.573 241.269 138.629 239.337 138.869 237.192L127.226 233.47C126.271 233.142 125.599 232.593 125.209 231.824C124.82 231.056 124.789 230.194 125.117 229.239ZM171.746 259.68C176.968 259.293 181.327 257.108 184.82 253.127C188.314 249.145 189.864 244.51 189.472 239.221C189.079 233.933 186.862 229.577 182.819 226.155C178.776 222.732 174.143 221.214 168.921 221.602C163.698 221.989 159.373 224.171 155.946 228.148C152.519 232.125 151.001 236.758 151.393 242.046C151.786 247.335 153.97 251.693 157.947 255.12C161.924 258.548 166.523 260.068 171.746 259.68Z" fill="white"/>
<path opacity="0.5" d="M6.0473 169.872C5.60631 167.512 5.31715 165.406 5.17982 163.555C5.04249 161.704 5.01776 159.579 5.10562 157.179L17.7984 156.238C17.9597 153.035 18.3192 149.818 18.8771 146.586L6.80807 142.496C7.71356 138.573 9.01079 134.555 10.6998 130.441L22.9671 134.517C24.2155 131.632 25.7994 128.789 27.7186 125.988L18.1319 117.725C20.531 114.224 23.2852 111.028 26.3944 108.139L35.9812 116.401C38.4686 114.09 41.0466 112.104 43.7152 110.443L37.889 99.1098C41.6986 96.7001 45.4763 94.758 49.2223 93.2836L55.0486 104.617C58.1629 103.588 61.292 102.758 64.4358 102.126L63.4941 89.4329C65.8544 88.992 67.96 88.7028 69.8111 88.5655C71.6621 88.4281 73.7874 88.4034 76.1869 88.4913L77.1286 101.184C80.3312 101.345 83.5486 101.705 86.7806 102.263L90.6723 90.2084C94.7271 91.1041 98.8162 92.4625 102.94 94.2837L98.8497 106.353C101.734 107.601 104.511 109.19 107.18 111.119L115.641 101.518C119.142 103.917 122.338 106.671 125.228 109.78L116.965 119.367C119.144 121.864 121.13 124.442 122.923 127.101L134.256 121.275C136.666 125.084 138.608 128.862 140.083 132.608L128.551 138.449C129.712 141.553 130.608 144.678 131.24 147.821L143.933 146.88C144.374 149.24 144.663 151.346 144.801 153.197C144.938 155.048 144.963 157.173 144.875 159.573L132.182 160.514C132.021 163.717 131.595 166.939 130.905 170.181L143.173 174.256C142.267 178.179 140.904 182.202 139.083 186.325L127.013 182.235C125.633 185.13 124.049 187.972 122.262 190.764L131.849 199.026C129.45 202.528 126.695 205.724 123.586 208.613L113.801 200.365C111.446 202.667 108.934 204.648 106.265 206.309L112.106 217.84C108.287 220.118 104.438 221.999 100.56 223.483L94.932 212.135C91.8275 213.296 88.6984 214.126 85.5448 214.626L86.4865 227.319C84.1262 227.76 82.0206 228.049 80.1695 228.186C78.3185 228.324 76.1932 228.348 73.7937 228.261L72.852 215.568C69.6592 215.539 66.4419 215.179 63.2 214.489L59.11 226.558C55.1874 225.653 51.1693 224.355 47.0556 222.666L51.131 210.399C48.2367 209.018 45.3938 207.435 42.6023 205.648L34.3398 215.234C30.8382 212.835 27.6426 210.081 24.7531 206.972L33.0156 197.385C30.7039 194.898 28.7179 192.32 27.0575 189.651L15.5259 195.492C13.2483 191.673 11.3724 187.89 9.89795 184.144L21.2313 178.318C20.2026 175.203 19.3722 172.074 18.7401 168.93L6.0473 169.872ZM77.3445 190.108C86.0708 189.461 93.3105 185.799 99.0637 179.124C104.817 172.449 107.37 164.748 106.722 156.022C106.075 147.295 102.414 140.056 95.7384 134.303C89.0632 128.549 81.3624 125.996 72.6361 126.644C63.9098 127.291 56.6701 130.953 50.9169 137.628C45.1637 144.303 42.6109 152.004 43.2583 160.73C43.9057 169.456 47.567 176.696 54.2422 182.449C60.9174 188.202 68.6182 190.755 77.3445 190.108Z" fill="white"/>
<path d="M189.335 114.093L192.114 112.444C192.507 112.258 192.929 112.219 193.38 112.326C193.831 112.434 194.15 112.684 194.335 113.077L197.311 118.257C199.137 117.714 200.982 117.516 202.845 117.661L204.433 111.864C204.561 111.388 204.821 111.056 205.214 110.871C205.607 110.685 206.016 110.636 206.442 110.723L209.592 111.591C210.018 111.678 210.336 111.929 210.547 112.342C210.758 112.755 210.82 113.174 210.733 113.6L209.145 119.397C210.08 119.884 210.879 120.388 211.541 120.909C212.153 121.389 212.806 122.026 213.501 122.819L218.757 119.904C219.099 119.678 219.496 119.619 219.947 119.726C220.399 119.834 220.742 120.104 220.979 120.537L222.491 123.331C222.768 123.714 222.84 124.12 222.707 124.551C222.574 124.983 222.317 125.337 221.935 125.613L216.738 128.452C217.281 130.279 217.505 132.144 217.41 134.047L223.207 135.635C223.593 135.773 223.901 136.036 224.132 136.424C224.364 136.811 224.435 137.218 224.348 137.644L223.404 140.733C223.277 141.21 223.019 141.564 222.632 141.795C222.244 142.026 221.832 142.053 221.395 141.874L215.675 140.346C215.187 141.282 214.683 142.08 214.163 142.743C213.683 143.354 213.026 144.033 212.192 144.779L215.168 149.959C215.353 150.352 215.39 150.751 215.277 151.157C215.164 151.563 214.917 151.904 214.535 152.18L211.68 153.769C211.287 153.955 210.878 154.004 210.452 153.917C210.026 153.829 209.695 153.569 209.458 153.136L206.483 147.956C204.707 148.539 202.888 148.757 201.025 148.612L199.36 154.349C199.233 154.825 198.985 155.167 198.618 155.372C198.25 155.578 197.828 155.617 197.351 155.49L194.202 154.622C193.776 154.535 193.458 154.284 193.246 153.871C193.035 153.458 192.973 153.039 193.061 152.613L194.725 146.876C193.79 146.389 192.991 145.885 192.329 145.364C191.666 144.844 190.988 144.187 190.293 143.394L185.113 146.369C184.68 146.606 184.248 146.658 183.816 146.525C183.385 146.392 183.077 146.129 182.891 145.736L181.302 142.881C181.026 142.499 180.954 142.093 181.087 141.662C181.219 141.23 181.482 140.922 181.875 140.736L187.055 137.761C186.513 135.934 186.289 134.069 186.384 132.166L180.663 130.638C180.226 130.46 179.892 130.177 179.661 129.789C179.43 129.402 179.384 129.015 179.522 128.629L180.39 125.48C180.517 125.003 180.774 124.649 181.162 124.418C181.549 124.187 181.962 124.16 182.398 124.339L188.195 125.927C188.683 124.991 189.187 124.193 189.707 123.53C190.227 122.868 190.884 122.189 191.678 121.494L188.702 116.314C188.466 115.881 188.404 115.462 188.517 115.056C188.629 114.65 188.902 114.329 189.335 114.093ZM196.133 140.443C198.146 142.024 200.438 142.672 203.011 142.386C205.584 142.1 207.671 140.938 209.272 138.9C210.873 136.862 211.508 134.56 211.176 131.992C210.845 129.425 209.673 127.351 207.66 125.77C205.648 124.189 203.368 123.551 200.821 123.857C198.273 124.163 196.199 125.335 194.598 127.373C192.997 129.411 192.35 131.703 192.656 134.251C192.961 136.798 194.121 138.862 196.133 140.443Z" fill="white"/>
</g>
<g opacity="0.1">
<path opacity="0.34" d="M312.578 204.025L319.024 202.559C319.869 202.281 320.551 201.745 321.069 200.95C321.588 200.155 321.709 199.335 321.431 198.491L318.552 186.611C322.028 184.843 325.046 182.539 327.608 179.699L338.129 186.069C338.99 186.597 339.842 186.723 340.687 186.445C341.532 186.167 342.209 185.663 342.718 184.934L346.172 179.21C346.681 178.481 346.801 177.661 346.533 176.75C346.265 175.84 345.766 175.13 345.037 174.621L334.515 168.252C335.217 166.211 335.693 164.338 335.943 162.632C336.174 161.058 336.247 159.193 336.162 157.036L348.071 153.961C348.897 153.815 349.569 153.344 350.087 152.549C350.606 151.754 350.736 150.869 350.478 149.893L348.787 143.614C348.659 142.658 348.193 141.953 347.389 141.499C346.584 141.046 345.704 140.883 344.747 141.011L333.035 144.115C331.267 140.639 328.973 137.555 326.153 134.863L332.522 124.341C332.9 123.593 332.988 122.768 332.785 121.867C332.582 120.966 332.116 120.262 331.387 119.752L325.634 116.495C324.774 115.967 323.893 115.804 322.992 116.007C322.092 116.21 321.443 116.751 321.045 117.631L314.705 127.956C312.664 127.254 310.791 126.778 309.085 126.527C307.511 126.296 305.581 126.213 303.293 126.279L300.414 114.399C300.137 113.555 299.628 112.91 298.889 112.467C298.15 112.023 297.303 111.865 296.346 111.993L289.871 113.655C289.026 113.933 288.349 114.436 287.84 115.166C287.331 115.895 287.205 116.748 287.464 117.724L290.342 129.603C286.886 131.24 283.877 133.478 281.316 136.318L270.765 130.145C269.905 129.617 269.057 129.459 268.222 129.671C267.387 129.884 266.705 130.42 266.177 131.28L262.723 137.004C262.214 137.733 262.093 138.553 262.362 139.464C262.63 140.374 263.129 141.084 263.858 141.593L274.409 147.766C273.707 149.807 273.231 151.68 272.98 153.385C272.73 155.09 272.647 157.021 272.732 159.178L260.853 162.056C259.877 162.315 259.162 162.846 258.709 163.651C258.256 164.455 258.168 165.28 258.446 166.125L260.108 172.6C260.235 173.557 260.701 174.262 261.506 174.715C262.31 175.168 263.135 175.255 263.98 174.978L275.86 172.099C277.627 175.575 279.921 178.659 282.742 181.351L276.402 191.676C276.004 192.556 275.907 193.446 276.11 194.347C276.313 195.248 276.788 195.887 277.537 196.265L283.261 199.719C284.121 200.247 285.002 200.41 285.902 200.207C286.803 200.004 287.452 199.463 287.849 198.584L294.219 188.062C296.26 188.764 298.133 189.24 299.838 189.49C301.543 189.741 303.474 189.823 305.631 189.738L308.509 201.618C308.768 202.594 309.266 203.304 310.005 203.747C310.744 204.191 311.602 204.283 312.578 204.025ZM285.558 155.333C286.319 150.152 288.811 145.961 293.033 142.762C297.255 139.563 301.989 138.349 307.236 139.12C312.483 139.89 316.668 142.415 319.792 146.693C322.916 150.97 324.097 155.7 323.336 160.881C322.575 166.063 320.089 170.22 315.876 173.353C311.664 176.487 306.934 177.668 301.688 176.898C296.441 176.127 292.25 173.636 289.117 169.423C285.984 165.211 284.797 160.514 285.558 155.333Z" fill="white"/>
<path opacity="0.5" d="M363.254 327.044C365.577 327.653 367.656 328.093 369.493 328.363C371.329 328.632 373.447 328.809 375.847 328.894L377.696 316.301C380.902 316.37 384.137 316.242 387.401 315.918L390.615 328.249C394.592 327.627 398.693 326.621 402.917 325.232L399.732 312.704C402.698 311.665 405.648 310.289 408.579 308.576L416.133 318.73C419.798 316.589 423.183 314.071 426.288 311.177L418.734 301.022C421.218 298.707 423.384 296.278 425.231 293.735L436.118 300.359C438.794 296.732 441.002 293.103 442.742 289.473L431.855 282.849C433.105 279.816 434.157 276.755 435.013 273.664L447.606 275.514C448.215 273.191 448.654 271.112 448.924 269.275C449.194 267.439 449.371 265.321 449.455 262.921L436.863 261.072C436.932 257.866 436.804 254.631 436.479 251.367L448.781 248.35C448.179 244.242 447.117 240.065 445.596 235.822L433.265 239.036C432.227 236.07 430.841 233.186 429.108 230.385L439.292 222.635C437.15 218.97 434.632 215.585 431.738 212.48L421.584 220.034C419.249 217.681 416.82 215.515 414.297 213.537L420.921 202.65C417.294 199.974 413.665 197.766 410.034 196.026L403.381 207.11C400.368 205.729 397.316 204.611 394.226 203.755L396.075 191.162C393.753 190.553 391.673 190.114 389.837 189.844C388 189.574 385.882 189.397 383.483 189.313L381.633 201.905C378.427 201.836 375.183 202.03 371.9 202.486L368.715 189.958C364.737 190.58 360.627 191.651 356.383 193.172L359.597 205.503C356.612 206.673 353.663 208.048 350.75 209.631L343.196 199.476C339.532 201.618 336.147 204.136 333.042 207.03L340.567 217.381C338.102 219.565 335.946 221.929 334.098 224.471L323.015 217.818C320.47 221.465 318.317 225.169 316.559 228.93L327.474 235.358C326.094 238.371 325.041 241.432 324.316 244.542L311.724 242.693C311.115 245.015 310.675 247.095 310.405 248.931C310.136 250.768 309.959 252.886 309.874 255.285L322.467 257.135C322.267 260.321 322.395 263.556 322.85 266.839L310.519 270.053C311.141 274.031 312.147 278.131 313.536 282.356L326.064 279.17C327.234 282.156 328.61 285.105 330.192 288.018L320.038 295.572C322.179 299.236 324.697 302.621 327.591 305.726L337.746 298.172C340.061 300.657 342.49 302.822 345.033 304.67L338.38 315.753C342.026 318.299 345.665 320.441 349.295 322.18L355.919 311.294C358.952 312.543 362.013 313.596 365.104 314.452L363.254 327.044ZM348.183 254.48C349.455 245.822 353.626 238.864 360.696 233.604C367.767 228.344 375.631 226.35 384.288 227.622C392.946 228.893 399.904 233.064 405.164 240.135C410.424 247.206 412.418 255.07 411.146 263.727C409.875 272.384 405.704 279.343 398.633 284.603C391.562 289.862 383.698 291.856 375.041 290.585C366.384 289.313 359.425 285.142 354.165 278.072C348.906 271.001 346.912 263.137 348.183 254.48Z" fill="white"/>
<path d="M432.032 148.229L433.876 145.576C434.089 145.197 434.159 144.779 434.084 144.321C434.009 143.863 433.783 143.528 433.404 143.314L428.451 139.975C429.123 138.192 429.453 136.366 429.441 134.497L435.337 133.329C435.822 133.236 436.171 133.001 436.384 132.622C436.598 132.243 436.676 131.838 436.619 131.407L435.98 128.204C435.923 127.773 435.697 127.437 435.3 127.197C434.903 126.957 434.489 126.865 434.058 126.922L428.162 128.09C427.743 127.122 427.298 126.289 426.826 125.591C426.391 124.947 425.803 124.25 425.061 123.499L428.346 118.466C428.595 118.141 428.683 117.749 428.608 117.291C428.534 116.834 428.289 116.471 427.874 116.204L425.195 114.496C424.833 114.192 424.433 114.091 423.993 114.193C423.554 114.294 423.182 114.526 422.879 114.887L419.675 119.866C417.892 119.195 416.048 118.837 414.142 118.795L412.974 112.899C412.864 112.504 412.624 112.178 412.254 111.92C411.884 111.661 411.484 111.561 411.053 111.617L407.903 112.337C407.419 112.43 407.047 112.661 406.789 113.031C406.531 113.401 406.475 113.81 406.621 114.259L407.735 120.074C406.767 120.494 405.934 120.939 405.236 121.41C404.592 121.846 403.868 122.452 403.064 123.23L398.111 119.891C397.732 119.677 397.336 119.612 396.924 119.696C396.511 119.779 396.153 120.002 395.849 120.363L394.06 123.096C393.847 123.475 393.768 123.88 393.825 124.311C393.882 124.742 394.117 125.091 394.532 125.358L399.486 128.697C398.777 130.426 398.429 132.225 398.44 134.094L392.599 135.343C392.114 135.436 391.756 135.658 391.525 136.01C391.293 136.362 391.224 136.78 391.317 137.265L391.956 140.468C392.013 140.899 392.239 141.235 392.636 141.475C393.033 141.715 393.447 141.807 393.878 141.75L399.72 140.502C400.139 141.469 400.584 142.302 401.056 143C401.527 143.698 402.134 144.422 402.875 145.172L399.536 150.126C399.269 150.541 399.186 150.968 399.288 151.408C399.389 151.847 399.629 152.174 400.008 152.387L402.741 154.176C403.103 154.48 403.503 154.581 403.943 154.479C404.382 154.377 404.709 154.137 404.922 153.759L408.261 148.805C410.044 149.477 411.889 149.834 413.794 149.877L414.907 155.692C415.054 156.141 415.312 156.494 415.682 156.752C416.052 157.011 416.434 157.085 416.829 156.974L420.033 156.335C420.518 156.242 420.889 156.011 421.147 155.641C421.406 155.271 421.461 154.861 421.315 154.413L420.147 148.517C421.115 148.098 421.947 147.652 422.645 147.181C423.343 146.709 424.067 146.103 424.818 145.362L429.771 148.701C430.186 148.968 430.6 149.06 431.013 148.976C431.425 148.893 431.765 148.644 432.032 148.229ZM406.237 139.559C404.804 137.438 404.323 135.105 404.792 132.559C405.262 130.014 406.571 128.015 408.718 126.565C410.866 125.114 413.208 124.646 415.745 125.16C418.282 125.675 420.267 126.993 421.699 129.113C423.132 131.234 423.604 133.554 423.117 136.072C422.629 138.591 421.311 140.576 419.164 142.027C417.016 143.478 414.683 143.959 412.164 143.471C409.645 142.984 407.67 141.679 406.237 139.559Z" fill="white"/>
</g>
</g>
</svg>
